<?xml version="1.0" encoding="UTF-8" standalone="no"?>
<svg
   xmlns:dc="http://purl.org/dc/elements/1.1/"
   xmlns:cc="http://creativecommons.org/ns#"
   xmlns:rdf="http://www.w3.org/1999/02/22-rdf-syntax-ns#"
   xmlns:svg="http://www.w3.org/2000/svg"
   xmlns="http://www.w3.org/2000/svg"
   viewBox="0 0 464 149.33333"
   height="149.33333"
   width="464"
   xml:space="preserve"
   id="svg2"
   version="1.1"><metadata
     id="metadata8"><rdf:RDF><cc:Work
         rdf:about=""><dc:format>image/svg+xml</dc:format><dc:type
           rdf:resource="http://purl.org/dc/dcmitype/StillImage" /></cc:Work></rdf:RDF></metadata><defs
     id="defs6" /><g
     transform="matrix(1.3333333,0,0,-1.3333333,0,149.33333)"
     id="g10"><path
       id="path12"
       style="fill:#4c96b6;fill-opacity:1;fill-rule:nonzero;stroke:none"
       d="m 55.948,53.994 1.801,1.732 c 0,0 9.597,9.338 9.628,9.362 2.785,1.808 4.985,3.385 6.923,4.961 2.642,2.13 6.155,5.248 6.155,7.735 0,0 -0.142,0.822 -0.145,0.827 -0.043,0.125 -0.242,0.296 -0.322,0.299 -0.958,0.026 -2.009,-0.955 -2.779,-1.675 0,0 -0.516,-0.456 -0.507,-0.448 -0.004,-0.004 -0.009,-0.009 -8.913,-8.264 0,0 -0.599,-0.585 -0.633,-0.612 -5.443,-3.377 -11.636,-6.29 -18.937,-8.906 l -1.616,-0.527 -1.303,-0.42 -0.211,-0.066 -1.58,6.987 c 0,0 -1.147,4.69 -1.142,4.802 1.517,4.461 2.255,8.715 2.255,13.005 0,0 -0.102,2.811 -0.102,2.812 -0.22,3.092 -0.678,9.528 -4.464,11.366 -0.375,0.187 -0.762,0.195 -1.15,0.023 -1.443,-0.647 -2.345,-3.728 -2.443,-4.076 -0.359,-1.322 -0.533,-2.723 -0.533,-4.283 0,-2.782 0.553,-5.542 1.041,-7.971 L 40.048,67.43 40.023,67.37 c -1.19,-2.82 -2.431,-4.993 -4.034,-7.565 -0.252,-0.555 -0.678,-1.683 -0.678,-2.388 0,-0.191 0.032,-0.44 0.178,-0.534 0.301,-0.182 0.571,0.11 0.919,0.658 1.616,2.598 2.714,4.625 3.913,7.23 l 0.24,0.521 1.635,-6.693 0.145,-0.713 0.145,-0.742 -0.172,-0.052 C 38.972,56.08 35.289,55.194 31.366,54.458 l -0.072,-0.014 -0.064,0.037 c -12.177,7.041 -20.925,9.526 -26,7.386 -2.439,-1.032 -4.004,-3.141 -4.65,-6.213 0.168,-2.257 0.941,-3.343 4.95,-4.946 4.148,-1.662 10.881,-1.181 15.835,-0.826 2.624,0.182 5.445,0.537 8.877,1.117 l 0.069,0.012 c 0,0 3.751,-2.171 3.752,-2.172 1.778,-1.055 4.892,-3.061 8.542,-5.504 l 0.199,-0.131 c 0,0 -0.971,-1.013 -1.023,-1.067 -3.696,-3.873 -7.517,-7.878 -9.626,-12.978 -0.473,-1.158 -0.722,-2.343 -0.722,-3.424 0,-1.693 0.58,-3.082 1.634,-3.909 1.545,-1.208 3.77,-0.924 6.104,0.778 4.869,3.562 7.415,9.258 7.785,17.416 l 0.016,0.359 0.297,-0.204 c 6.646,-4.564 12.633,-8.9 16.428,-11.897 7.918,-6.262 9.239,-8.309 11.255,-11.986 0.064,-0.111 0.193,-0.165 0.315,-0.134 0.115,0.032 0.199,0.142 0.2,0.264 l -0.019,0.05 -0.044,0.138 -0.002,0.03 c -0.53,7.919 -15.723,19.559 -28.376,27.929 l -0.084,0.066 -0.026,0.462 0.061,0.063 c 3.598,3.707 7.093,7.043 8.971,8.834 z m -14.019,19.11 -0.39,-0.004 -1.822,7.587 c 0,0 -1.369,6.972 -1.37,6.979 l -0.057,0.342 c -0.251,1.495 -0.379,2.692 -0.379,3.559 0,0.863 0.122,1.354 0.379,1.541 0.136,0.104 0.339,0.087 0.6,-0.048 3.646,-1.785 3.646,-10.252 3.646,-13.035 L 42.528,78.373 C 42.52,76.632 42.324,74.908 41.929,73.104 Z M 24.914,53.479 C 19.081,52.86 14.063,52.942 9.573,53.73 c -2.001,0.345 -5.542,1.339 -6.775,4.122 -0.049,0.107 -0.073,0.205 -0.073,0.296 0,0.107 0.033,0.205 0.102,0.298 0.228,0.314 1.462,1.29 7.759,0.657 3.369,-0.34 8.212,-2.106 14.397,-5.247 l 0.602,-0.307 z m 13.149,-3.161 -2.614,1.647 0.47,0.107 c 2.245,0.515 4.591,1.143 6.972,1.867 l 0.213,0.064 0.041,-0.218 c 0.49,-2.554 0.858,-4.846 1.128,-7.009 l 0.051,-0.419 z M 42.677,29.224 C 42.006,27.603 39.706,25.477 37.352,24.898 36.14,24.592 35.137,24.756 34.37,25.387 l -10e-4,0.001 c -0.4,0.334 -0.605,0.788 -0.629,1.388 l -0.006,0.118 c 0,2.701 3.492,7.823 10.377,15.225 l 0.115,0.127 0.525,-0.357 0.098,-0.156 0.049,-1.703 c 0,-3.579 -0.747,-7.214 -2.221,-10.806 z m 4.133,18.152 -0.045,0.423 c -0.233,2.213 -0.574,4.536 -1.014,6.902 l -0.032,0.171 1.03,0.344 4.158,1.457 c 2.436,0.941 5.017,2.094 7.892,3.526 L 59.029,59.878 46.81,47.376" /><path
       id="path14"
       style="fill:#231f20;fill-opacity:1;fill-rule:nonzero;stroke:none"
       d="M 95.947,111.238 V 0.738 c 0,-0.277 0.224,-0.5 0.5,-0.5 0.277,0 0.5,0.223 0.5,0.5 v 110.5 c 0,0.276 -0.223,0.5 -0.5,0.5 -0.276,0 -0.5,-0.224 -0.5,-0.5" /><path
       id="path16"
       style="fill:#231f20;fill-opacity:1;fill-rule:nonzero;stroke:none"
       d="m 123.251,83.15 h -0.077 l -3.377,-19.114 h -3.723 l 5.911,30.168 9.94,-22.799 9.941,22.799 5.91,-30.168 h -3.723 l -3.377,19.114 h -0.077 l -8.674,-19.728 -8.674,19.728" /><path
       id="path18"
       style="fill:#231f20;fill-opacity:1;fill-rule:nonzero;stroke:none"
       d="m 158.079,92.975 h 3.608 v -28.94 h -3.608 z" /><path
       id="path20"
       style="fill:#231f20;fill-opacity:1;fill-rule:nonzero;stroke:none"
       d="m 176.614,89.751 h 0.96 c 3.569,0 7.867,-0.653 7.867,-5.181 0,-4.606 -3.991,-5.296 -7.676,-5.296 h -1.151 z m 5.258,-13.125 c 4.184,0.499 6.947,3.953 6.947,8.097 0,2.764 -1.381,5.488 -3.8,6.908 -2.303,1.306 -5.066,1.344 -7.638,1.344 h -4.375 V 64.036 h 3.608 V 76.28 h 1.497 l 8.52,-12.244 h 4.376 l -9.135,12.59" /><path
       id="path22"
       style="fill:#231f20;fill-opacity:1;fill-rule:nonzero;stroke:none"
       d="m 216.646,74.59 h -10.288 l 5.144,11.707 z m 1.496,-3.3 3.3,-7.254 h 3.877 L 211.502,94.204 197.686,64.036 h 3.876 l 3.3,7.254 h 13.28" /><path
       id="path24"
       style="fill:#231f20;fill-opacity:1;fill-rule:nonzero;stroke:none"
       d="m 117.993,50.189 21.723,-22.76 v 21.378 h 3.608 V 18.678 l -21.723,22.76 v -21.57 h -3.608 v 30.321" /><path
       id="path26"
       style="fill:#231f20;fill-opacity:1;fill-rule:nonzero;stroke:none"
       d="m 156.143,48.807 h 15.544 v -3.301 h -11.936 v -8.097 h 11.59 v -3.301 h -11.59 v -10.94 h 11.936 v -3.3 h -15.544 v 28.939" /><path
       id="path28"
       style="fill:#231f20;fill-opacity:1;fill-rule:nonzero;stroke:none"
       d="m 193.141,19.868 h -3.608 v 25.638 h -6.869 v 3.301 h 17.348 v -3.301 h -6.871 V 19.868" /><path
       id="path30"
       style="fill:#231f20;fill-opacity:1;fill-rule:nonzero;stroke:none"
       d="m 221.619,28.082 8.175,21.34 8.176,-21.34 8.097,20.725 h 3.915 l -12.012,-30.09 -8.176,21.225 -8.175,-21.225 -12.013,30.09 h 3.915 l 8.098,-20.725" /><path
       id="path32"
       style="fill:#231f20;fill-opacity:1;fill-rule:nonzero;stroke:none"
       d="m 270.746,22.631 c -6.257,0 -11.553,5.106 -11.553,11.707 0,6.372 4.759,11.705 11.553,11.705 6.793,0 11.552,-5.333 11.552,-11.705 0,-6.601 -5.296,-11.707 -11.552,-11.707 z m 0,26.791 c -8.29,0 -15.161,-6.795 -15.161,-15.084 0,-8.597 6.794,-15.084 15.161,-15.084 8.366,0 15.159,6.487 15.159,15.084 0,8.289 -6.869,15.084 -15.159,15.084" /><path
       id="path34"
       style="fill:#231f20;fill-opacity:1;fill-rule:nonzero;stroke:none"
       d="m 300.271,45.584 h 0.958 c 3.571,0 7.869,-0.654 7.869,-5.182 0,-4.607 -3.992,-5.296 -7.676,-5.296 h -1.151 z m 5.257,-13.126 c 4.184,0.498 6.948,3.953 6.948,8.097 0,2.764 -1.382,5.488 -3.8,6.909 -2.303,1.305 -5.068,1.343 -7.638,1.343 h -4.375 V 19.868 h 3.608 v 12.244 h 1.496 l 8.521,-12.244 h 4.375 l -9.135,12.59" /><path
       id="path36"
       style="fill:#231f20;fill-opacity:1;fill-rule:nonzero;stroke:none"
       d="m 342.604,48.807 h 4.721 L 334.314,35.795 347.556,19.868 h -4.875 L 331.78,33.34 330.321,31.958 v -12.09 h -3.607 v 28.939 h 3.607 V 36.256 l 12.283,12.551" /></g></svg>