<svg width="947" height="419" viewBox="0 0 947 419" fill="none" xmlns="http://www.w3.org/2000/svg">
<g clip-path="url(#clip0_30_380)">
<mask id="mask0_30_380" style="mask-type:luminance" maskUnits="userSpaceOnUse" x="0" y="-1" width="947" height="420">
<path d="M0 -0.0024235H947V419H0V-0.0024235Z" fill="white"/>
</mask>
<g mask="url(#mask0_30_380)">
<path d="M179.729 132.657L190.328 157.254C190.328 157.254 171.649 140.94 145.289 132.657L162.061 164.869C162.061 164.869 136.312 139.662 94.5918 132.657C94.5918 132.657 117.323 143.758 132.48 169.984C147.637 196.21 145.827 221.255 145.827 221.255L161.849 199.777C161.849 199.777 157.038 224.106 163.039 251.048L182.591 220.432C182.591 220.432 173.606 255.316 188.388 294.915C188.388 294.915 186.651 269.699 201.808 243.474C216.965 217.256 239.582 206.301 239.582 206.301L212.954 203.174C212.954 203.174 236.443 195.168 256.802 176.508L220.495 174.904C220.495 174.904 255.22 165.236 282.159 132.641C282.159 132.641 261.156 146.747 230.842 146.747C200.536 146.747 179.729 132.657 179.729 132.657ZM336.158 219.984L320.675 187.072L304.662 219.984H336.158ZM321.23 157.653L368.225 255.666H352.938L342.42 233.309H298.18L287.304 255.666H272.016L321.23 157.653ZM438.222 190.273C438.222 186.249 437.39 175.278 427.239 168.477C421.263 164.454 414.039 163.061 402.787 163.061H375.995V255.666H390.174V176.117H405.282C412.237 176.117 424.606 177.363 424.606 190.411C424.606 206.016 407.859 205.544 399.746 205.544H394.365L429.465 255.666H446.563L417.651 216.099C430.019 213.322 438.222 203.605 438.222 190.273ZM463.562 209.022C463.562 189.369 479.013 173.975 499.306 173.975C509.351 173.975 519.551 177.722 526.465 183.659V168.412C518.597 163.688 510.134 160.919 499.306 160.919C474.031 160.919 448.405 180.002 448.405 209.022C448.405 238.041 474.031 257.124 499.306 257.124C509.71 257.124 518.597 254.347 526.465 249.631V234.384C519.551 240.322 509.351 244.068 499.306 244.068C479.013 244.068 463.562 228.675 463.562 209.022ZM695.834 209.429C695.834 177.119 667.183 176.394 660.375 176.394H649.849V242.333H660.375C667.33 242.333 695.834 241.747 695.834 209.429ZM710.461 209.429C710.461 224.839 704.061 238.171 691.831 246.78C680.995 254.412 670.852 255.666 657.921 255.666H635.671V163.061H658.206C671.129 163.061 682.381 164.454 692.67 172.086C703.93 180.556 710.461 194.019 710.461 209.429ZM773.494 219.984L758.019 187.072L742.006 219.984H773.494ZM779.764 233.309H735.524L724.648 255.666H709.36L758.574 157.653L805.561 255.666H790.282L779.764 233.309ZM595.833 219.984L580.35 187.072L564.345 219.984H595.833ZM580.913 157.653L627.9 255.666H612.613L602.103 233.309H557.855L546.987 255.666H531.691L580.913 157.653Z" fill="#777777"/>
</g>
</g>
<defs>
<clipPath id="clip0_30_380">
<rect width="947" height="419" fill="white"/>
</clipPath>
</defs>
</svg>
