<svg width="345" height="345" viewBox="0 0 345 345" fill="none" xmlns="http://www.w3.org/2000/svg">
<g clip-path="url(#clip0_30_387)">
<path d="M344.476 344.48H0V-0.00138515H344.476V344.48Z" fill="#777777"/>
<path d="M229.834 176.9C230.473 176.9 230.989 176.383 230.989 175.749C230.989 175.113 230.473 174.588 229.834 174.588C229.2 174.588 228.684 175.113 228.684 175.749C228.684 176.383 229.2 176.9 229.834 176.9ZM217.426 146.941C218.061 146.941 218.582 146.423 218.582 145.787C218.582 145.151 218.061 144.637 217.426 144.637C216.788 144.637 216.273 145.151 216.273 145.787C216.273 146.423 216.788 146.941 217.426 146.941ZM114.93 104.556C113.689 106.215 112.704 107.779 112.728 108.572C112.79 109.672 113.145 110.787 113.507 111.896C113.846 112.959 114.212 114.043 114.119 114.72C113.808 115.924 107.758 123.608 105.212 126.829C103.729 128.733 102.942 129.728 102.669 130.129C101.924 131.281 101.525 132.993 101.924 134.359C102.131 135.073 102.613 135.601 103.303 135.909C104.271 136.315 106.457 136.688 108.602 137.071C108.602 137.071 107.449 141.648 106.515 143.821C106.085 144.807 106.708 145.519 107.239 145.941C107.419 146.083 108.053 146.339 108.476 146.44C108.161 146.88 107.58 146.928 107.356 148.135C107.58 148.769 109.173 150.277 108.714 151.62C108.42 152.464 108.053 152.976 107.496 154.113C107.08 154.984 106.758 155.773 106.532 156.276C105.837 157.881 106.324 162.388 108.214 163.651C110.411 165.111 114.28 165.824 118.194 166.164C123.794 168.155 128.639 177.976 129.97 188.596L131.588 189.461C130.374 179.588 126.97 170.353 121.723 166.38C122.73 166.419 123.707 166.443 124.62 166.451C126.629 166.463 128.987 166.604 131.243 166.732C136.434 167.027 140.913 167.297 142.841 166.416C144.833 165.568 148.722 160.031 149.077 159.697L147.534 159.56C147.074 159.956 146.632 160.521 146.128 161.093C145.037 162.372 143.69 163.984 142.074 164.672C140.562 165.351 135.649 165.197 131.345 164.945C129.053 164.828 126.694 164.672 124.635 164.672C115.697 164.573 110.273 162.589 109.517 162.003C108.377 161.128 108.009 157.948 108.356 156.875C108.486 156.464 108.847 155.724 109.219 154.956C109.798 153.755 110.027 153.797 110.328 152.748C110.684 151.432 110.66 149.844 109.764 148.631C112.149 148.576 114.743 146.508 117.228 147.247C117.523 147.323 117.753 148.016 118.109 148.076C118.947 148.205 118.751 147.516 118.583 147.016C118.583 147.016 117.509 144.216 117.425 144.028C117.311 143.764 116.475 143.579 116.574 143.92C116.67 144.263 117.112 145.091 116.897 145.471C116.668 145.877 115.697 145.636 115.436 145.612C114.234 145.536 110.652 145.253 109.798 144.713C109.053 144.216 108.962 143.883 108.819 143.259C108.714 142.837 110.027 139.336 110.36 137.364C111.631 137.555 112.333 137.644 113.184 137.749C114.38 137.823 115.14 137.955 115.874 137.517C118.624 135.921 118.296 131.959 115.495 131.301C114.697 131.128 114.28 132.439 115.184 132.801C116.11 133.159 116.326 133.427 116.262 134.412C116.226 134.959 115.842 135.448 115.591 135.675C115.296 135.961 114.449 136.047 113.606 135.867C112.646 135.651 111.178 135.716 109.755 135.472C107.496 135.101 104.316 134.652 103.959 133.835C103.652 133.08 103.67 132.105 104.275 131.192C104.51 130.853 105.532 129.531 106.72 128.019C113.549 119.376 115.874 116.064 116.017 114.965C116.153 113.849 115.764 112.613 115.326 111.296C115.014 110.352 114.697 109.34 114.658 108.529C114.92 107.347 119.707 101.628 121.04 100.595C121.874 99.9573 124.243 98.408 127.981 98.384C140.082 98.28 151.158 101.156 169.033 115.683C182.228 126.42 189.437 147.596 190.618 157.501C190.733 158.344 191.446 159.457 191.446 159.457C191.446 159.457 191.976 157.847 191.88 156.979C190.932 148.039 184.728 125.973 170.25 114.192C151.929 99.3013 140.49 96.372 127.97 96.464C123.651 96.504 120.86 98.3093 119.852 99.096C119.365 99.468 117.73 101.171 116.135 103.089L101.083 91.3466C109.824 89.4213 146.534 82.6093 168.498 99.0106C192.304 116.78 195.364 138.195 195.388 138.412C195.388 138.412 197.14 137.083 196.777 135.601C195.252 129.233 189.486 112.307 169.646 97.4746C158.472 89.1493 143.768 86.6866 131.507 86.3773C138.321 82.092 160.149 70.5506 184.924 81.652C185.298 89.66 182.088 94.7746 175.402 96.9133L175.22 96.952C175.22 96.952 176.77 98.3213 177.158 98.1533C185.905 94.7373 187.161 86.656 186.626 80.3413C186.208 75.3853 187.221 71.8746 189.629 69.9706C193.476 66.9186 198.71 68.4026 200.345 68.936C224.364 78.5893 242.932 98.0506 251.552 122.496C247.484 121.533 241.366 119.824 239.429 115.936C231.293 99.332 216.306 83.6853 199.85 75.488C199.892 75.5133 199.492 75.288 199.038 75.056C199.001 75.036 198.952 75.056 198.892 75.1C198.913 75.6626 198.918 76.2986 198.902 76.9973C198.97 77.0386 199.012 77.064 199.012 77.064C214.946 84.9746 229.476 100.085 237.473 115.999C233.022 115.389 229.218 115.329 225.84 112.512C224.148 111.099 207.752 90.8653 197.126 83.2786C196.989 83.9466 196.782 84.4346 196.593 85.1346C205.405 91.764 219.088 107.435 223.444 112.817C220.309 113.216 211.216 111.929 208.997 110.063C207.342 108.668 199.954 99.4386 193.882 93.1706C193.598 93.64 193.296 94.5106 192.976 94.9773C198.358 100.544 200.85 104.096 207.082 111.217C208.694 119.963 207.78 127.577 206.601 131.263C206.514 131.651 208.056 131.635 208.142 131.301C209.52 126.601 210.397 120.069 208.978 112.235C212.897 114.071 216.561 114.699 224.632 114.571C229.494 117.808 233.276 117.613 238.497 118.176C241.069 121.941 247.776 123.833 252.762 124.541L254.153 124.733L253.722 123.391C245.186 97.768 225.965 77.3133 200.973 67.288L200.946 67.2813H200.913C198.889 66.4613 193.277 64.8347 188.501 68.596C185.796 70.7387 184.538 74.4053 184.788 79.4893C177.052 76.1733 169.618 74.9226 162.993 75.0413C155.521 75.1653 149.705 76.4453 145.392 77.8266C135.853 80.8693 129.425 85.4306 128.175 86.3693C126.85 86.352 125.585 86.3773 124.345 86.4306C110.069 86.9933 98.7815 89.92 98.6628 89.9733L96.8118 90.456L98.3195 91.632L114.93 104.556ZM116.574 143.92C116.536 143.844 116.525 143.831 116.574 143.92ZM250.216 146.571C250.374 145.279 251.017 144.099 252.058 143.297C253.093 142.505 254.392 142.148 255.702 142.315C256.986 142.465 258.14 143.128 258.954 144.167C259.762 145.203 260.124 146.508 259.957 147.797C259.613 150.479 257.166 152.385 254.478 152.055C253.158 151.889 252.006 151.224 251.197 150.2C250.374 149.167 250.052 147.888 250.216 146.571ZM203.497 170.863C202.67 170.233 201.856 169.596 201.074 168.74L248.533 147.948C248.673 149.135 249.126 150.263 249.88 151.213V151.215L203.497 170.863ZM253.08 161.128C254.033 161.145 255.066 161.119 256.09 160.969C256.098 161.388 256.09 161.812 256.072 162.133C255.97 172.636 253.997 182.969 250.257 192.864C249.096 191.763 245.148 188.136 246.246 184.721C248.397 178.047 249.684 167.88 249.684 167.88L248.366 167.268C247.554 173.844 247.049 177.381 245.116 183.481C243.713 182.239 241.97 180.171 241.528 176.349C241.468 176.041 243.538 165.057 243.538 165.057L242.517 164.672C242.429 164.607 241.564 170.12 240.421 174.62C238.921 173.801 237.322 169.112 237.129 166.901C236.877 163.82 237.668 159.773 238.21 157.737L242.036 156.12C244.861 159.22 248.833 161.071 253.08 161.128ZM207.101 175.768C211.156 178.901 214.653 181.596 215.624 182.317C217.954 184.019 220.558 185.961 223.621 184.76C227.257 183.352 226.288 179.353 225.856 177.624C225.301 175.375 222.5 171.583 221.46 170.188L228.572 174.635L227.325 167.588C228.957 168.7 232.569 171.336 233.552 173.008C234.822 175.195 235.085 181.395 234.025 184.448C232.91 187.609 230.782 191.956 225.088 193.211C219.809 194.384 215.76 191.341 210.598 187.505L209.465 186.648C209.44 186.648 191.752 174.033 191.752 174.033L191.728 174.095C190.221 173.035 189.345 172.396 189.069 172.193C186.129 170.041 179.889 167.104 174.998 169.841C170.201 172.524 168.922 175.629 167.796 181.964L166.27 182.869C165.678 182.479 160.772 179.279 160.493 179.123C161.121 173.153 162.917 165.821 170.865 161.825C180.434 157.011 188.937 162.04 191.32 163.703C192.97 164.86 200.828 170.901 207.101 175.768ZM190.577 178.079C190.21 181.08 188.285 187.033 183.768 188.429C179.473 189.749 176.121 189.225 171.337 186.245L190.577 178.079ZM169.594 181.385C170.761 175.488 172.061 173.404 175.825 171.312C179.861 169.044 185.334 171.601 187.864 173.393L169.594 181.385ZM189.218 174.351C189.708 174.724 191.718 176.052 191.718 176.052L169.873 185.281C169.717 185.181 168.298 184.185 167.7 183.8L189.218 174.351ZM199.984 182.456C199.44 185.941 197.14 194.427 187.364 197.924C177.364 201.511 169.734 196.76 166.916 194.567C165.741 193.621 159.496 189.137 159.496 189.137C156.392 186.888 150.417 183.516 145.414 186.323C142.258 188.057 141.41 190.799 140.722 192.953C140.638 193.161 140.562 193.595 140.477 193.964L138.17 194.976C137.992 194.844 137.813 194.744 137.592 194.625C136.528 194.001 135.258 193.237 133.877 192.484C134.905 185.575 137.706 180.835 142.214 178.356C147.289 175.601 155.337 177.648 160.342 180.989C160.342 180.989 167.062 185.347 168.444 186.332C174.746 190.717 178.889 191.677 184.276 190.027C189.618 188.391 191.817 181.847 192.28 178.212L192.394 177.295L193.093 177.013L200.038 182.003C200.033 182.175 200 182.332 199.984 182.456ZM157.069 192.072C156.189 194.744 153.657 197.836 150.804 198.721C147.761 199.653 145.446 198.945 143.337 197.885L157.069 192.072ZM142.422 193.121C143.03 191.191 143.816 189.107 146.238 187.779C148.701 186.367 151.616 186.908 154.13 187.981L142.422 193.121ZM155.821 188.781C156.616 189.236 157.348 189.679 157.986 190.144L141.73 197.005C141.613 196.916 139.845 195.933 139.706 195.841L155.821 188.781ZM154.884 208.129C149.678 209.763 143.438 208.333 137.79 204.167C136.854 203.471 131.437 199.997 130.561 199.427C128.684 198.161 124.725 195.508 121.04 197.429C118.364 198.809 116.574 200.751 115.207 202.593C113.808 204.473 112.599 206.137 110.87 206.831C108.98 207.596 106.718 207.975 103.303 206.583C101.139 205.7 99.9919 202.641 99.8956 201.059C100.901 202.255 102.815 204.667 105.124 205.02C107.714 205.407 109.548 204.339 110.97 203.211C112.246 202.224 112.903 200.703 113.606 199.083C114.626 196.712 115.781 194.052 119.106 192.243C124.62 189.284 128.952 191.687 131.824 193.249C133.662 194.263 140.093 197.969 140.52 198.245C143.349 199.887 146.577 201.793 151.301 200.316C155.214 199.117 158.469 194.615 158.985 191.268C158.985 191.268 164.486 194.784 165.654 195.715C164.564 200.825 159.652 206.591 154.884 208.129ZM129.178 214.86C125.747 216.287 123.152 215.289 120.685 214.331C118.996 213.695 117.418 213.37 115.944 213.36C113.58 213.304 112.112 214.204 110.587 216.361C109.204 218.371 109.67 221.652 109.886 223.237C108.053 221.996 107.58 219.457 107.86 217.159C108.356 213.42 110.501 211.659 112.815 210.907C114.517 210.345 116.962 210.28 119.032 210.443C121.42 210.645 124.197 211.245 127.109 210.047C131.071 208.416 131.691 204.844 132.058 202.653C132.058 202.653 135.921 204.86 136.806 205.52C136.865 205.567 136.93 205.615 136.982 205.656C136.012 209.256 134.626 212.642 129.178 214.86ZM130.199 203.447C129.758 205.585 128.925 207.493 126.483 208.5C123.939 209.537 121.53 209.336 119.253 209.167C118.496 209.085 117.145 209.191 116.424 209.18L130.199 203.447ZM114.507 205.344C114.874 204.92 116.129 204.101 116.488 203.667C117.939 201.929 119.419 200.14 121.811 198.899C123.67 197.952 125.68 198.513 127.624 199.573L114.507 205.344ZM98.18 215.466L97.6148 214.304L129.141 200.497C129.308 200.584 130.423 201.333 130.875 201.609L98.18 215.466ZM195.782 151.388C196.574 145.009 197.166 139.983 201.645 136.969C206.506 133.705 211.109 135.171 214.158 136.532C217.096 137.88 221.4 142.339 222.104 144.779C222.67 146.661 222.077 151.069 221.749 153.052L217.506 147.261L216.066 155.916C215.76 154.204 214.721 149.119 213.484 147.172C212.536 145.688 210.317 142.197 206.785 143.86C203.798 145.253 203.392 148.487 203.025 151.328C202.954 151.924 201.989 162.601 201.512 167.203L199.749 167.975C197.648 166.36 195.746 164.907 194.337 163.852C195.093 158.497 195.782 151.388 195.782 151.388ZM228.885 146.695C227.27 145.18 224.59 141.031 224.869 139.347C229.113 141.24 233.973 143.959 233.973 143.86L234.301 142.823C234.301 142.823 224.413 137.636 224.186 137.417C221.473 134.667 220.937 132.035 220.825 130.165C226.814 132.413 229.905 134.219 235.558 137.659L235.892 136.236C235.892 136.236 227.113 130.959 220.558 128.503C217.189 127.252 216.798 121.905 216.648 120.309C226.721 123.504 236.056 128.367 244.38 134.795C244.642 134.987 244.957 135.243 245.301 135.511C244.536 136.216 243.877 137.008 243.29 137.776C240.596 141.284 239.616 145.803 240.492 150.129L237.014 151.649C235.161 150.888 231.252 148.907 228.885 146.695ZM254.26 153.732C255.994 153.948 257.738 153.463 259.129 152.379C260.522 151.316 261.392 149.751 261.613 148.016C261.825 146.276 261.382 144.527 260.28 143.143C259.202 141.748 257.632 140.857 255.9 140.635C252.301 140.191 248.978 142.755 248.53 146.349C248.52 146.437 248.52 146.527 248.512 146.615L241.842 149.537C241.093 145.703 242.041 141.749 244.44 138.672C245.148 137.749 245.91 136.757 246.856 136.047L247.59 135.511L246.864 134.919C246.345 134.487 245.689 133.989 245.254 133.659C236.517 126.935 226.721 121.868 216.126 118.645L215.249 118.368L215.202 119.273C214.478 125.893 218.986 129.337 219.432 129.553C219.2 132.211 220.228 135.564 223.549 138.695C224.148 146.177 231.001 150.071 231.001 150.071C233.273 151.66 233.77 151.581 235.468 152.329L203.426 166.364C203.866 161.7 204.632 152.077 204.7 151.544C205.074 148.528 205.484 146.3 207.47 145.383C209.061 144.628 210.358 145.396 212.061 148.076C213.473 150.252 214.564 155.636 214.549 155.712L214.994 158.013C215.012 158.076 217.437 156.929 217.437 156.929L218.161 150.703L221.52 155.008L223.176 154.231C223.244 153.96 224.522 147.093 223.721 144.316C222.882 141.443 218.262 136.56 214.83 135.016C212.889 134.157 206.91 131.419 200.716 135.588C195.61 139.025 194.934 144.651 194.118 151.175C194.118 151.175 193.528 157.511 192.806 162.723C192.582 162.563 192.392 162.429 192.246 162.335C189.708 160.521 180.53 155.097 170.093 160.337C161.758 164.544 159.652 171.948 158.908 178.229C153.548 175.505 146.292 174.227 141.424 176.885C136.545 179.557 133.496 184.5 132.298 191.6C129.264 189.947 124.402 187.505 118.321 190.78C114.454 192.864 113.152 195.933 112.08 198.424C111.425 199.887 110.892 201.177 109.952 201.892C108.741 202.836 107.333 203.667 105.352 203.361C101.841 202.836 100.375 199.291 100.373 199.257L99.2123 196.419L98.7686 199.451C98.2394 202.979 99.4191 205.481 101.737 207.323C103.092 208.383 105.212 208.772 107.164 208.6L95.7858 213.537L97.5394 217.272L108.568 212.621C107.61 213.661 106.636 215.005 106.388 216.891C105.865 220.861 107.364 222.627 110.328 224.852L112.542 226.078L111.461 223.777C111.48 223.74 109.924 220.249 111.959 217.317C113.119 215.671 114.212 215.071 116.184 215.018C117.34 214.997 118.609 215.339 120.081 215.916C122.612 216.86 125.747 218.071 129.796 216.427C135.638 214.025 137.393 210.345 138.46 206.632C144.07 210.236 150.162 211.383 155.381 209.705C160.506 208.068 165.638 202.304 167.129 196.796C170.832 199.32 178.385 202.924 187.924 199.516C198.205 195.833 200.853 187.071 201.574 183.085L209.601 188.864C214.882 192.788 219.434 196.192 225.462 194.832C232.728 193.237 234.872 187.041 235.596 185C236.834 181.484 236.509 174.76 234.992 172.164C233.533 169.657 227.96 165.879 227.582 165.528L225.533 166.435L226.869 172.051L221.418 168.276L218.744 169.337L220.221 171.104C220.26 171.143 223.621 175.505 224.222 178.021C224.978 181.117 224.661 182.555 223.004 183.197C220.962 184.003 219.072 182.789 216.637 180.951C215.668 180.245 212.173 177.576 208.142 174.445C207.074 173.609 205.937 172.756 204.798 171.872L236.776 158.344C236.325 160.057 235.957 160.436 235.801 163.149C235.801 163.149 234.609 170.949 240.096 176.061C240.501 180.604 242.501 183.481 244.722 184.951C244.64 185.432 244.52 191.127 250.168 194.639L250.908 195.164L251.246 194.32C255.273 183.992 257.374 173.159 257.522 162.14C257.522 161.589 257.53 160.776 257.522 160.099L257.509 159.164L256.624 159.407C255.476 159.709 254.244 159.697 253.085 159.677C249.418 159.643 245.954 158.149 243.44 155.527L250.981 152.333C251.916 153.084 253.036 153.577 254.26 153.732ZM162.145 152.077C157.717 154.5 159.488 162.335 164.216 162.247C160.764 158.857 161.078 156.633 163.509 153.193C164.05 152.451 163.178 151.516 162.145 152.077ZM168.672 147.435C164.404 150.505 167.246 158.369 172.118 157.667C168.129 154.625 168.154 152.271 170.245 148.412C170.714 147.583 169.668 146.739 168.672 147.435ZM179.842 154.74C175.189 152.783 174.637 150.517 175.678 146.263C175.921 145.329 174.72 144.768 173.936 145.7C170.577 149.751 175.282 156.643 179.842 154.74ZM185.718 148.807C182.036 150.812 183.489 157.36 187.424 157.281C184.558 154.459 184.828 152.595 186.845 149.743C187.304 149.119 186.561 148.345 185.718 148.807ZM182.937 149.461C179.35 145.916 179.658 143.615 182.218 140.052C182.777 139.243 181.869 138.287 180.809 138.888C176.189 141.396 178.017 149.552 182.937 149.461ZM165.228 148.984C161.414 145.725 161.568 143.388 163.862 139.656C164.36 138.832 163.393 137.941 162.356 138.605C157.92 141.419 160.324 149.433 165.228 148.984ZM158.17 153.817C154.589 150.289 154.892 147.968 157.449 144.396C158.017 143.615 157.1 142.648 156.036 143.232C151.417 145.768 153.249 153.921 158.17 153.817ZM169.433 135.472C169.785 134.568 168.672 133.861 167.765 134.667C163.91 138.244 167.654 145.7 172.397 144.435C168.086 141.88 167.82 139.537 169.433 135.472ZM175.536 128.937C170.928 131.471 172.753 139.601 177.681 139.528C174.109 135.985 174.4 133.673 176.957 130.116C177.522 129.309 176.61 128.367 175.536 128.937ZM170.673 122.075C165.722 123.8 166.222 132.16 171.105 132.839C168.129 128.797 168.813 126.539 171.892 123.431C172.572 122.751 171.816 121.652 170.673 122.075ZM157.654 140.183C153.222 137.789 152.893 135.459 154.353 131.331C154.678 130.399 153.529 129.747 152.645 130.6C148.922 134.308 152.952 141.648 157.654 140.183ZM163.141 136.367C159.534 132.839 159.868 130.525 162.397 126.944C162.962 126.147 162.042 125.209 160.993 125.793C156.382 128.301 158.209 136.456 163.141 136.367ZM165.309 115.871C165.862 115.084 164.954 114.12 163.898 114.707C159.269 117.228 161.086 125.383 166.017 125.28C162.42 121.765 162.732 119.429 165.309 115.871ZM156.304 128.019C151.929 125.568 151.621 123.225 153.165 119.121C153.485 118.213 152.368 117.537 151.468 118.38C147.67 122.011 151.577 129.387 156.304 128.019ZM159.41 119.273C155.164 116.612 154.97 114.264 156.728 110.235C157.124 109.353 156.014 108.612 155.094 109.4C151.094 112.835 154.616 120.427 159.41 119.273ZM147.802 105.631C143.438 108.572 145.976 116.525 150.878 115.988C146.97 112.817 147.104 110.456 149.316 106.695C149.81 105.84 148.821 104.955 147.802 105.631ZM121.456 123.481C121.852 123.107 122.17 122.543 122.29 121.848C122.547 120.428 122.292 119.687 122.04 119.317C122.819 119.445 123.652 119.736 124.608 120.299C126.025 121.128 127.207 122.039 127.966 122.66C125.837 123.336 123.488 123.556 121.456 123.481ZM125.532 118.877C123.764 117.689 119.032 117.204 117.978 117.615L117.37 117.689L118.243 119.504C118.79 119.436 119.312 119.356 119.83 119.299C119.462 119.676 119.158 120.219 118.998 120.867C118.776 121.791 118.884 122.671 119.22 123.259C118.542 123.144 117.944 122.996 117.474 122.816L116.54 123.9C119.253 124.939 123.292 125.209 128.914 123.391L128.883 123.365L129.816 122.919C129.595 122.751 127.858 120.452 125.532 118.877ZM132.742 118.545L134.492 118.541C128.576 109.913 123.913 109.433 118.238 110.064C118.066 110.085 117.454 110.217 116.264 110.331C116.742 111.353 117.534 112.964 117.534 112.964C117.542 113.028 120.105 112.651 120.68 112.616C124.522 112.447 128.003 112.547 132.742 118.545ZM284.733 241.236V266.154L259.413 239.627V274.966H263.621V249.825L288.94 276.354V241.236H284.733ZM223.984 274.966H242.104V271.121H228.189V258.37H241.7V254.521H228.189V245.083H242.104V241.236H223.984V274.966ZM208.642 241.236H203.137L188.822 255.864V241.236H184.618V274.966H188.822V260.875L190.522 259.265L203.228 274.966H208.91L193.478 256.401L208.642 241.236ZM161.894 266.154L136.576 239.627V274.966H140.78V249.825L166.1 276.354V241.236H161.894V266.154ZM102.218 262.664L108.212 249.021L114.207 262.664H102.218ZM92.1071 274.966H96.6252L100.474 266.511H115.952L119.799 274.966H124.318L108.212 239.804L92.1071 274.966ZM75.555 254.839H59.4967V241.236H55.2915V274.966H59.4967V258.772H75.555V274.966H79.7618V241.236H75.555V254.839Z" fill="white"/>
</g>
<defs>
<clipPath id="clip0_30_387">
<rect width="344.48" height="344.48" fill="white"/>
</clipPath>
</defs>
</svg>
