<svg width="475" height="569" viewBox="0 0 475 569" fill="none" xmlns="http://www.w3.org/2000/svg">
<g clip-path="url(#clip0_29_98)">
<path d="M137.415 272.991L133.991 272.379C133.94 272.379 133.838 272.328 133.685 272.328C133.429 272.277 133.174 272.226 133.02 272.226C132.305 272.226 131.743 272.736 131.743 273.4C131.743 273.961 132.05 274.42 132.561 274.624C132.714 274.676 132.867 274.727 133.02 274.727C133.123 274.727 133.276 274.727 133.378 274.676L137.415 273.706V272.991Z" fill="#777777"/>
<path d="M136.547 268.245C136.495 268.143 136.444 268.092 136.393 267.99C136.138 267.582 135.831 267.071 135.116 267.071C134.4 267.071 133.838 267.633 133.838 268.347C133.838 269.113 134.502 269.521 134.962 269.776L138.029 271.665L138.488 271.154L136.547 268.245Z" fill="#777777"/>
<path d="M140.175 275.849C141.504 275.849 142.526 274.778 142.526 273.4C142.526 272.124 141.452 271.052 140.124 271.052C138.795 271.052 137.722 272.124 137.722 273.451C137.722 274.778 138.846 275.849 140.175 275.849Z" fill="#777777"/>
<path d="M140.482 276.054H139.766L139.051 279.575C139 279.779 138.897 280.239 138.897 280.494C138.897 281.106 139.511 281.719 140.124 281.719C140.839 281.719 141.453 281.157 141.453 280.494C141.453 280.29 141.402 279.983 141.299 279.575L140.482 276.054Z" fill="#777777"/>
<path d="M145.132 279.677C145.847 279.677 146.409 279.116 146.409 278.401C146.409 277.687 145.898 277.38 145.438 277.074C145.387 277.023 145.336 277.023 145.285 276.972L142.27 275.033L141.759 275.492L144.059 279.014C144.263 279.371 144.519 279.677 145.132 279.677Z" fill="#777777"/>
<path d="M147.278 274.625C147.943 274.625 148.556 274.063 148.556 273.4C148.556 272.736 147.943 272.175 147.278 272.175C147.023 272.175 146.563 272.277 146.358 272.328L142.935 272.991V273.706L146.41 274.522C146.512 274.522 146.563 274.574 146.665 274.574C146.767 274.574 147.023 274.625 147.278 274.625Z" fill="#777777"/>
<path d="M145.387 269.725C145.899 269.419 146.41 269.113 146.41 268.347C146.41 267.684 145.847 267.071 145.183 267.071C144.365 267.071 144.059 267.582 143.803 268.092C143.752 268.143 143.752 268.194 143.701 268.245L141.81 271.205L142.321 271.716L145.234 269.827C145.234 269.776 145.336 269.776 145.387 269.725Z" fill="#777777"/>
<path d="M140.481 270.746L141.197 267.275C141.197 267.224 141.248 267.122 141.248 267.02C141.299 266.765 141.401 266.51 141.401 266.306C141.401 265.642 140.788 265.03 140.073 265.03C139.562 265.03 139.102 265.336 138.897 265.846C138.744 266.204 138.795 266.408 138.897 266.714L139.766 270.695H140.481V270.746Z" fill="#777777"/>
<path d="M134.962 277.023C134.911 277.074 134.86 277.074 134.758 277.125C134.349 277.38 133.838 277.738 133.838 278.401C133.838 279.065 134.349 279.626 135.065 279.626C135.678 279.626 135.984 279.371 136.291 278.912L138.488 275.492L137.926 275.033L134.962 277.023Z" fill="#777777"/>
<path d="M329 272.94L325.576 272.328C325.525 272.328 325.422 272.277 325.32 272.277C325.065 272.226 324.809 272.175 324.605 272.175C323.991 272.175 323.327 272.634 323.327 273.349C323.327 273.91 323.634 274.369 324.145 274.574C324.298 274.625 324.451 274.676 324.605 274.676C324.758 274.676 324.911 274.625 325.065 274.625L329.051 273.655L329 272.94Z" fill="#777777"/>
<path d="M328.131 268.245C328.08 268.143 328.029 268.092 327.978 267.99C327.722 267.582 327.415 267.071 326.7 267.071C325.984 267.071 325.422 267.633 325.422 268.347C325.422 269.113 326.036 269.47 326.547 269.776L329.613 271.716L330.073 271.205L328.131 268.245Z" fill="#777777"/>
<path d="M331.708 275.798C333.037 275.798 334.059 274.676 334.059 273.349C334.059 272.073 332.986 271.001 331.657 271.001C330.328 271.001 329.255 272.073 329.255 273.4C329.306 274.727 330.379 275.798 331.708 275.798Z" fill="#777777"/>
<path d="M332.015 276.054H331.299L330.584 279.575C330.584 279.626 330.584 279.677 330.533 279.728C330.482 279.983 330.379 280.29 330.379 280.494C330.379 281.106 330.993 281.719 331.606 281.719C332.321 281.719 332.935 281.157 332.935 280.494C332.935 280.239 332.832 279.881 332.781 279.626L332.015 276.054Z" fill="#777777"/>
<path d="M338.811 272.124C338.556 272.124 338.045 272.226 337.891 272.277L334.468 272.94V273.655L337.891 274.471C337.943 274.471 338.045 274.522 338.096 274.522C338.3 274.574 338.556 274.625 338.811 274.625C339.476 274.625 340.089 274.012 340.089 273.4C340.089 272.685 339.476 272.124 338.811 272.124Z" fill="#777777"/>
<path d="M337.023 277.074C336.921 277.023 336.869 276.972 336.818 276.972L333.803 275.033L333.292 275.492L335.592 279.014C335.847 279.422 336.154 279.677 336.716 279.677C337.432 279.677 337.994 279.116 337.994 278.401C337.994 277.636 337.483 277.329 337.023 277.074Z" fill="#777777"/>
<path d="M336.972 269.674C337.483 269.368 337.943 269.062 337.943 268.296C337.943 267.633 337.38 267.02 336.716 267.02C335.898 267.02 335.592 267.531 335.336 267.99C335.285 268.041 335.234 268.143 335.234 268.194L333.343 271.154L333.854 271.665L336.767 269.776C336.818 269.776 336.869 269.725 336.972 269.674Z" fill="#777777"/>
<path d="M326.547 276.972C326.496 277.023 326.444 277.074 326.342 277.074C325.933 277.329 325.371 277.687 325.371 278.35C325.371 279.014 325.933 279.575 326.598 279.575C327.211 279.575 327.518 279.32 327.824 278.861L330.022 275.441L329.46 274.982L326.547 276.972Z" fill="#777777"/>
<path d="M332.066 270.695L332.781 267.275C332.781 267.224 332.832 267.173 332.832 267.071C332.883 266.816 332.986 266.51 332.986 266.357C332.986 265.693 332.372 265.081 331.657 265.081C331.146 265.081 330.635 265.438 330.482 265.897C330.328 266.255 330.379 266.51 330.482 266.816L331.35 270.746L332.066 270.695Z" fill="#777777"/>
<path d="M220.406 75.7884L222.144 68.8475C222.399 69.3579 223.115 70.7869 225.363 75.227L220.406 75.7884ZM186.525 72.6752C186.883 72.5732 187.343 72.4201 187.598 72.4201C188.416 72.318 188.671 72.5732 189.029 73.3897C189.387 74.2574 189.642 74.9719 190.971 78.9527L192.708 84.0563L192.862 84.4646C193.628 86.8122 194.344 88.8026 194.548 89.9254C194.702 90.742 194.753 91.2013 194.446 91.4054L193.526 91.8648C193.424 91.9158 193.066 92.0179 193.015 92.3241C192.964 92.5793 193.117 92.7834 193.22 92.8344C193.322 92.8855 193.424 92.9365 193.526 92.9365C193.679 92.9365 193.833 92.8855 193.986 92.8344L197.41 91.5585L201.396 90.2826C201.703 90.1806 201.907 90.0275 202.009 89.8744C202.06 89.7723 202.06 89.6192 202.009 89.4661C201.856 89.1088 201.447 89.1088 201.243 89.2109L199.863 89.5681C199.556 89.6192 199.096 89.5682 198.688 88.5985C198.228 87.4757 197.512 85.3832 196.643 82.9335L195.928 80.841C197.001 81.6065 204.36 85.9446 205.995 86.6081C207.579 87.2715 208.601 87.6288 210.237 87.2205L212.179 86.6081C212.179 86.6081 213.865 86.1487 216.88 85.7915L219.946 85.5363C220.151 85.5363 220.406 85.4853 220.559 85.2811C220.662 85.1791 220.662 85.0259 220.662 84.8728C220.662 84.7197 220.611 84.6177 220.508 84.5156C220.355 84.4135 220.151 84.4135 219.895 84.4135L219.435 84.4646C219.078 84.5156 218.822 84.4646 218.669 84.3625C218.566 84.2604 218.515 84.1583 218.464 83.9542C218.413 83.648 218.515 82.9845 218.669 82.219L219.742 77.8809V77.8299L226.181 77.1154L229.196 82.9845C229.247 83.0355 229.247 83.0866 229.247 83.1376V83.1887V83.2397C229.247 83.2397 229.247 83.2397 229.196 83.2397H229.145C228.991 83.2907 228.532 83.3928 228.583 83.8521C228.634 84.3114 229.145 84.2604 229.656 84.2604L235.277 83.699C236.299 83.5969 236.555 83.4949 236.759 83.2907V83.2397C236.81 83.1376 236.861 83.0355 236.861 82.9845C236.861 82.8824 236.81 82.7804 236.759 82.7293C236.657 82.5762 236.504 82.4741 236.146 82.5252H234.97C234.357 82.4231 233.54 82.0659 232.262 79.8203L223.012 62.8253C222.655 62.2129 222.348 61.8046 221.888 61.8556C221.377 61.9067 221.224 62.417 220.968 63.3357L215.756 82.3721C215.5 83.3418 215.194 84.2094 214.632 84.6687C214.018 84.9749 212.587 84.8218 212.587 84.8218C211.054 84.7708 209.47 84.0563 207.988 83.3418L207.733 83.1887C206.404 82.5762 199.505 78.9016 197.665 77.7278C198.432 76.0947 200.987 70.9911 201.498 69.9703C202.162 68.6434 202.878 67.6737 203.696 66.9592C204.156 66.602 204.769 66.2957 205.126 66.1426C205.28 66.0916 205.382 66.0406 205.484 65.9385C205.637 65.8364 205.689 65.6833 205.689 65.5302C205.689 65.275 205.433 65.0198 205.178 65.0198H205.126C204.973 65.0198 204.82 65.0709 204.718 65.1219L201.498 66.2957L198.636 67.1634C198.534 67.2144 198.432 67.2144 198.381 67.2654C198.176 67.3165 198.074 67.5206 198.074 67.7248C198.074 67.8779 198.125 68.031 198.228 68.082C198.381 68.2861 198.636 68.2861 198.892 68.2351C198.994 68.2351 199.096 68.2351 199.147 68.4393C199.147 68.4903 199.147 68.5413 199.147 68.6434C199.147 69.0517 198.892 69.7152 198.585 70.4807L198.432 70.8379C198.176 71.4504 197.359 73.2877 196.132 75.8395L194.957 78.4423L194.702 77.6257C193.271 73.4918 193.066 72.7773 192.811 71.8587C192.708 71.5014 192.657 71.2462 192.657 71.0421C192.657 70.6848 192.811 70.4807 193.117 70.2766L193.833 69.9193C193.935 69.8683 194.139 69.8172 194.293 69.6131H194.344V69.3579C194.344 69.2048 194.293 69.0517 194.139 68.9496L194.088 68.8986C193.935 68.7965 193.679 68.8475 193.322 68.9496L190 70.1745L186.065 71.3993C185.81 71.5014 185.196 71.7056 185.35 72.2159C185.759 72.7263 186.065 72.8283 186.525 72.6752Z" fill="#777777"/>
<path d="M234.051 328.876C231.853 328.825 229.911 327.957 228.429 326.426C226.539 324.436 225.568 321.476 225.67 318.056C225.772 314.841 226.59 312.493 228.123 311.013C229.554 309.686 231.342 309.431 232.569 309.431C232.671 309.431 232.722 309.431 232.824 309.431C234.868 309.482 236.708 310.299 238.139 311.83C239.979 313.769 240.898 316.678 240.796 319.995C240.694 322.7 239.927 328.927 234.255 328.927C234.204 328.876 234.102 328.876 234.051 328.876ZM233.795 307.441C225.312 307.185 221.275 313.157 221.071 318.771C220.968 321.731 221.939 324.691 223.728 326.834C225.823 329.335 228.94 330.764 232.722 330.866C232.926 330.866 233.08 330.866 233.233 330.866C236.555 330.866 239.519 329.794 241.716 327.702C244.016 325.558 245.344 322.445 245.447 319.026C245.702 312.136 241.205 307.696 233.795 307.441Z" fill="#777777"/>
<path d="M273.553 324.18C273.298 324.232 272.071 324.436 271.662 324.487C270.896 324.538 270.742 324.283 270.436 323.415C270.027 322.19 269.414 319.74 268.749 317.086L267.472 311.83C266.603 308.41 266.092 305.961 265.888 304.889L265.785 304.43C265.683 304.123 265.581 303.868 265.428 303.766C265.326 303.664 265.172 303.664 265.019 303.715C264.712 303.766 264.457 304.072 264.201 304.327C263.384 305.297 258.989 310.095 258.784 310.248L258.733 310.299C258.631 310.401 258.427 310.656 258.529 311.064C258.529 311.115 258.631 311.319 258.938 311.421C259.142 311.473 259.398 311.421 259.602 311.268L260.317 310.707C260.828 310.248 262.106 309.227 262.413 309.176C262.515 309.125 262.566 309.125 262.77 309.89V309.941C262.821 310.146 262.975 310.809 263.69 313.616L264.814 318.158C265.479 320.914 266.092 323.262 266.245 324.487C266.399 325.354 266.296 325.609 265.632 325.967C265.121 326.222 263.741 326.63 263.486 326.732C263.332 326.783 263.23 326.834 263.179 326.936C263.128 327.038 263.077 327.192 263.128 327.396C263.179 327.549 263.281 327.804 263.69 327.804C263.792 327.804 263.946 327.804 263.997 327.753L268.8 326.426L273.553 325.354C273.757 325.303 274.013 325.201 274.115 324.997C274.217 324.742 274.217 324.589 274.115 324.436C273.962 324.18 273.604 324.18 273.553 324.18Z" fill="#777777"/>
<path d="M276.926 306.675C276.67 306.471 276.466 306.267 276.313 306.012L276.262 305.961C276.159 305.808 276.108 305.654 276.006 305.501C275.853 305.093 275.75 304.634 275.75 304.174C275.75 303.766 275.802 303.409 275.955 303.052C276.262 302.286 276.875 301.725 277.846 301.316C279.43 300.653 281.065 301.418 281.781 303.154C282.752 305.501 281.73 307.186 280.963 308.002C279.021 307.747 277.795 307.39 276.977 306.777L276.926 306.675ZM287.249 317.546C286.891 318.464 286.124 319.128 285.204 319.536C283.16 320.404 280.81 319.332 279.89 317.138C278.766 314.382 279.941 312.085 280.81 310.962C283.569 311.37 286.124 311.728 287.198 314.28C287.657 315.402 287.657 316.576 287.249 317.546ZM283.467 307.951C284.182 307.186 286.38 304.583 285.051 301.469C284.591 300.347 283.825 299.53 282.752 299.122C281.321 298.509 279.43 298.663 277.437 299.479C273.042 301.265 272.531 304.328 272.531 305.552C272.531 306.165 272.633 306.828 272.889 307.339C273.706 309.329 275.495 310.401 278.51 310.758C278.255 311.064 277.999 311.37 277.743 311.677C276.517 313.208 275.904 314.841 275.904 316.423C275.904 317.24 276.057 318.005 276.364 318.72C276.977 320.149 277.999 321.169 279.328 321.731C280.094 322.037 280.912 322.19 281.832 322.19C283.058 322.19 284.387 321.884 285.716 321.322C288.679 320.098 289.957 318.26 290.519 316.882C291.184 315.3 291.184 313.565 290.57 312.034C289.139 308.666 285.256 308.155 283.467 307.951Z" fill="#777777"/>
<path d="M307.792 308.614C307.639 308.563 307.536 308.614 307.434 308.666C307.23 308.768 306.157 309.329 305.748 309.482C304.981 309.737 304.777 309.533 304.266 308.819C303.55 307.849 302.324 305.859 301.046 303.766L297.98 298.714L294.403 292.487L294.199 292.13C293.994 291.824 293.841 291.671 293.637 291.62C293.074 291.517 292.717 292.385 292.666 292.538C292.206 293.661 289.344 299.632 289.242 299.836C289.088 300.143 289.088 300.398 289.242 300.653C289.395 300.857 289.599 300.908 289.702 300.908C290.059 300.908 290.264 300.551 290.315 300.551C290.366 300.5 290.468 300.347 290.877 299.734C291.184 299.275 292.052 297.948 292.41 297.693L292.563 297.642C292.666 297.744 292.819 297.999 292.972 298.254L297.367 305.45C298.645 307.543 300.075 309.89 300.638 311.115C300.995 311.881 301.046 312.187 300.484 312.748C300.075 313.106 298.9 313.922 298.645 314.075C298.44 314.228 298.287 314.535 298.491 314.841C298.593 314.994 298.747 315.096 298.9 315.096C299.105 315.096 299.309 314.994 299.411 314.943L303.653 312.289L307.843 309.839C308.099 309.737 308.252 309.584 308.303 309.38C308.354 309.176 308.252 308.972 308.252 308.972C308.048 308.717 307.894 308.666 307.792 308.614Z" fill="#777777"/>
<path d="M319.75 298.56C319.699 299.326 319.392 299.887 318.83 300.347C318.217 300.857 317.45 301.112 316.582 301.01C314.384 300.806 311.42 298.713 308.661 295.396C306.003 292.181 304.624 289.374 304.777 287.435C304.828 286.72 305.135 286.108 305.646 285.648C306.157 285.189 306.821 284.985 307.536 284.985C307.639 284.985 307.741 284.985 307.894 284.985C310.5 285.24 313.72 287.996 315.866 290.548C318.575 293.814 319.954 296.621 319.75 298.56ZM310.245 282.076C308.354 281.923 306.565 282.484 304.981 283.862C300.791 287.383 301.251 292.844 306.31 298.867C309.018 302.082 312.187 303.919 315.048 303.919C316.684 303.919 318.268 303.307 319.648 302.133C321.283 300.704 322.203 299.02 322.407 297.08C322.663 294.069 321.232 290.65 318.319 287.128C317.144 285.75 313.975 282.433 310.245 282.076Z" fill="#777777"/>
<path d="M107.265 168.623C108.287 163.876 113.142 161.427 119.069 162.703C127.144 164.438 127.041 169.031 126.633 170.97C125.559 175.972 120.551 178.524 114.419 177.248C106.907 175.615 106.703 171.124 107.265 168.623ZM114.368 181.892C115.237 182.096 116.105 182.198 117.025 182.198C119.121 182.198 121.114 181.688 122.8 180.718C125.662 179.085 127.604 176.278 128.37 172.604C129.137 169.082 128.626 165.867 126.888 163.162C125.202 160.508 122.391 158.671 119.018 157.956C115.85 157.293 112.988 157.701 110.637 159.232C108.082 160.865 106.294 163.672 105.527 167.398C104.71 171.175 105.272 174.594 107.214 177.299C108.849 179.596 111.455 181.28 114.368 181.892Z" fill="#777777"/>
<path d="M113.448 145.912C113.653 145.861 113.806 145.606 113.908 145.401L114.368 144.585C114.879 143.921 115.237 143.921 116.106 144.228C116.974 144.585 117.69 144.891 121.727 146.779L126.377 148.974C128.575 149.995 130.823 151.066 131.896 151.73C132.612 152.189 132.969 152.495 132.867 152.853C132.867 152.904 132.714 153.261 132.612 153.516C132.561 153.669 132.51 153.771 132.51 153.771C132.407 154.078 132.356 154.231 132.407 154.384C132.407 154.435 132.51 154.588 132.663 154.639C132.714 154.69 132.765 154.69 132.867 154.69C132.918 154.69 133.021 154.69 133.072 154.639C133.276 154.588 133.429 154.384 133.583 154.078L134.4 152.24L135.065 150.76L137.109 146.677L138.846 143.156C139.46 141.829 139.511 141.421 138.846 140.808C138.131 140.196 136.24 139.073 135.933 138.92C135.678 138.818 135.218 138.614 135.014 139.073C134.86 139.379 134.962 139.685 135.371 139.89C135.831 140.145 136.342 140.757 136.496 141.217C136.853 142.084 136.444 143.003 135.78 144.432C134.809 146.473 134.349 146.984 133.838 147.239C133.225 147.494 131.181 146.575 128.166 145.146L122.647 142.543C119.376 141.012 118.712 140.706 117.945 140.298C116.974 139.788 116.872 139.481 117.025 138.971L117.434 137.899C117.536 137.695 117.639 137.44 117.536 137.236C117.485 137.134 117.383 137.032 117.281 136.929C116.77 136.725 116.514 137.287 116.412 137.542L114.828 141.165L113.039 144.738C112.886 145.146 112.835 145.35 112.886 145.555C112.937 145.81 113.142 146.014 113.448 145.912Z" fill="#777777"/>
<path d="M175.743 90.8951L177.429 91.0992C180.291 91.4565 181.364 92.3241 182.079 93.549C182.846 94.8249 182.539 96.8153 180.495 98.0401C179.524 98.6015 177.582 99.3671 175.743 97.6318C175.334 97.2746 174.976 96.8152 174.823 96.5601C174.72 96.407 174.567 96.2028 174.363 96.1007C174.209 96.0497 174.107 96.1007 173.954 96.1518C173.443 96.407 173.801 97.1215 173.903 97.3766L175.743 100.745C176.049 101.255 176.254 101.46 176.713 101.46C176.816 101.46 176.867 101.46 177.02 101.46C178.349 101.306 179.575 100.847 181.159 99.9284C182.795 98.9588 183.97 97.7849 184.685 96.407C185.145 95.4883 185.35 94.5697 185.35 93.6C185.35 92.1199 184.788 90.9461 184.43 90.3847C182.999 87.935 180.853 86.8632 176.305 86.2508L175.283 86.1487C172.472 85.8425 171.348 85.3832 170.683 84.2604C170.428 83.8011 170.275 83.3418 170.275 82.8824C170.275 81.9127 170.939 80.9431 172.063 80.2796C173.545 79.412 174.618 79.6672 175.283 79.9224C176.151 80.2286 176.662 80.892 176.765 81.0962C176.918 81.3514 177.071 81.5045 177.276 81.5555C177.429 81.6065 177.736 81.5555 177.889 81.1983C177.94 80.9941 177.838 80.6879 177.582 80.2286L176.1 77.5747L175.896 77.1664C175.64 76.7581 175.18 76.9112 175.027 76.9623C174.107 77.2174 172.932 77.6257 171.348 78.5444C169.406 79.6672 168.077 81.3003 167.668 83.0355C167.311 84.4135 167.515 85.8425 168.282 87.1184C169.61 89.2109 171.757 90.3337 175.743 90.8951Z" fill="#777777"/>
<path d="M261.084 86.7101C261.288 86.7101 261.442 86.6591 261.544 86.608C261.748 86.4549 261.748 86.1487 261.697 85.9956L261.646 85.9446C261.544 85.7915 261.339 85.6894 261.084 85.6384L259.653 85.2811C258.989 85.077 258.887 84.7197 258.938 83.9542C259.04 82.7293 259.398 80.4837 259.857 77.8809L260.726 72.6242C261.442 68.3882 261.595 67.4696 261.799 66.5509C262.055 65.4791 262.31 65.326 262.873 65.326L263.741 65.3771C264.252 65.4792 264.508 65.326 264.559 64.9178V64.8667L264.508 64.6626L264.457 64.6115C264.355 64.4584 264.15 64.3564 263.741 64.3053L260.215 63.795L256.485 63.0805C256.076 63.0294 255.769 63.0294 255.616 63.1315C255.514 63.1825 255.463 63.2846 255.463 63.4377C255.412 63.6419 255.463 63.795 255.565 63.897C255.667 63.9991 255.871 64.1012 256.076 64.1522C256.331 64.2032 256.689 64.2543 257.047 64.4074C257.507 64.6115 257.66 65.0198 257.558 65.8874C257.456 66.8061 257.353 67.5206 256.689 71.5524L255.769 77.0643C255.309 79.7692 254.952 82.1169 254.594 83.2907C254.338 84.2093 254.134 84.3625 253.776 84.3625L252.754 84.3114C252.243 84.2604 251.988 84.3625 251.937 84.6687C251.885 84.8728 251.937 85.2301 252.703 85.3832L256.331 85.8935L260.828 86.7101C260.88 86.7101 260.982 86.7101 261.084 86.7101Z" fill="#777777"/>
<path d="M295.987 100.541C295.987 100.745 296.089 100.949 296.192 101.153C296.907 102.276 297.827 103.246 299.36 104.266C300.944 105.338 302.477 105.9 304.01 105.951C304.062 105.951 304.113 105.951 304.215 105.951C307.077 105.951 308.712 104.215 309.427 103.195C311.063 100.847 311.114 98.4484 309.734 94.1103L309.427 93.1407C308.559 90.4358 308.507 89.2619 309.223 88.1902C310.143 86.8122 311.829 86.6591 313.413 87.7819C314.844 88.7516 315.049 89.8233 315.1 90.5378C315.151 91.4565 314.793 92.222 314.691 92.3751C314.64 92.4262 314.384 92.7834 314.487 93.0896C314.538 93.2427 314.589 93.3448 314.691 93.3958C314.793 93.4979 315.049 93.6 315.355 93.3448C315.509 93.2427 315.662 93.0896 315.815 92.7834L317.604 90.3337L317.91 89.9254C318.166 89.5171 317.859 89.2109 317.757 89.0578C317.195 88.3943 316.326 87.4246 314.793 86.4039C312.953 85.128 310.96 84.6176 309.172 84.9239C307.741 85.179 306.566 85.9446 305.697 87.1695C304.215 89.313 304.062 91.7627 305.288 95.5393L305.799 97.1725C306.668 99.9284 306.31 101.255 305.544 102.378C304.675 103.603 302.733 104.164 300.842 102.837C299.871 102.174 298.389 100.745 299.207 98.3463C299.36 97.836 299.616 97.3256 299.769 97.0704C299.871 96.9173 300.024 96.7132 299.973 96.458C299.973 96.3049 299.871 96.2028 299.769 96.1007C299.309 95.7945 298.849 96.407 298.645 96.6111L296.345 99.6733C296.141 100.031 295.987 100.235 295.987 100.541Z" fill="#777777"/>
<path d="M333.088 106.206C333.343 106.512 334.008 107.227 335.387 108.707C336.614 109.983 336.869 110.799 336.869 111.258C336.869 111.514 336.767 111.718 336.614 111.922L336.409 112.177C336.205 112.432 336.052 112.636 336.052 112.841C336.052 112.994 336.103 113.096 336.205 113.249C336.512 113.555 336.92 113.3 337.125 113.147L337.176 113.096L337.227 113.045C337.585 112.738 339.016 111.361 339.629 110.799C339.833 110.595 340.038 110.391 340.038 110.136C340.038 110.034 339.987 109.88 339.884 109.778L339.22 109.319C339.169 109.268 338.351 108.554 337.789 108.094L329.715 99.6733C329.051 99.0098 328.335 98.1422 327.824 97.4787C327.569 97.1725 327.466 96.9173 327.364 96.7132L327.16 96.407L327.109 96.3559C326.802 96.0497 326.342 96.3049 326.138 96.458C325.984 96.5601 323.634 98.0401 323.225 98.3974C323.021 98.6015 322.918 98.7546 322.918 98.9588V99.0098C322.969 99.265 323.123 99.3671 323.225 99.4181C323.532 99.5712 323.838 99.3671 323.889 99.3671C324.043 99.265 324.349 99.1629 324.86 99.0609C325.525 98.9588 326.087 99.3671 327.211 100.439L330.124 103.246C328.897 104.471 321.794 111.361 321.692 111.412L321.385 111.718C319.648 113.402 318.115 114.882 317.195 115.597C316.479 116.158 316.071 116.311 315.815 116.107L314.997 115.443C314.64 115.086 314.333 115.035 314.129 115.239C314.026 115.341 313.975 115.443 313.975 115.597C313.975 115.903 314.231 116.209 314.333 116.311L316.939 118.863L320.057 122.231C320.261 122.435 320.516 122.588 320.721 122.588C320.925 122.588 321.028 122.486 321.079 122.435C321.181 122.333 321.232 122.18 321.232 122.129C321.232 121.925 321.13 121.772 320.976 121.568L320.005 120.445C319.852 120.241 319.801 120.088 319.801 119.884C319.801 119.526 320.057 119.169 320.312 118.863C321.13 117.842 322.918 116.107 324.656 114.423C330.89 108.349 332.577 106.716 333.088 106.206Z" fill="#777777"/>
<path d="M330.124 131.162C329.306 131.622 329 131.571 328.795 131.367L328.131 130.601C328.029 130.448 327.875 130.244 327.62 130.193C327.518 130.193 327.364 130.193 327.313 130.244C327.16 130.346 327.109 130.448 327.058 130.601C327.007 130.958 327.313 131.316 327.313 131.316L329.46 134.276L331.964 138.103C332.168 138.41 332.372 138.563 332.628 138.563C332.73 138.563 332.832 138.512 332.935 138.461C333.088 138.359 333.343 138.103 332.935 137.542L332.219 136.266C331.912 135.654 332.117 135.296 332.679 134.837C333.65 134.072 335.439 132.847 337.892 131.162L343.155 127.641C346.017 125.702 346.579 125.293 347.346 124.885C348.265 124.324 348.572 124.426 348.981 124.783L349.543 125.446C349.901 125.957 350.207 125.906 350.463 125.753C350.565 125.702 350.616 125.6 350.667 125.446C350.718 125.242 350.616 124.987 350.412 124.681L348.368 121.772L346.323 118.608C346.17 118.352 345.812 117.791 345.353 118.046C345.199 118.097 345.148 118.25 345.097 118.352C345.046 118.659 345.25 118.965 345.25 118.965C345.455 119.322 345.608 119.628 345.71 119.833C345.915 120.343 345.71 120.7 344.995 121.262C344.33 121.772 343.717 122.18 340.804 124.171L335.336 127.896C332.935 129.427 331.197 130.601 330.124 131.162Z" fill="#777777"/>
<path d="M352.2 136.011C352.354 135.96 352.711 135.96 353.222 136.062C353.887 136.164 354.295 136.776 354.96 138.154L356.697 141.829C355.164 142.492 346.426 146.371 346.017 146.524L345.915 146.575C343.513 147.647 341.418 148.566 340.293 148.923C339.425 149.178 339.016 149.178 338.811 148.923C338.811 148.923 338.811 148.923 338.3 148.004C338.198 147.749 337.994 147.596 337.789 147.545C337.534 147.494 337.329 147.647 337.329 147.698C337.074 147.902 337.227 148.26 337.329 148.566L338.913 151.883L340.702 156.119C340.804 156.425 341.009 156.578 341.213 156.68H341.264C341.315 156.68 341.315 156.68 341.366 156.68C341.571 156.68 341.673 156.578 341.724 156.527C341.929 156.272 341.826 155.864 341.775 155.762L341.264 154.384C341.213 154.282 341.213 154.18 341.213 154.078C341.213 153.618 341.571 153.363 342.133 153.057C343.206 152.444 345.25 151.526 347.703 150.454L348.776 149.995C351.178 148.923 357.259 146.269 358.486 145.708C358.639 146.167 359.099 147.188 359.763 148.872C360.121 149.791 360.326 150.556 360.326 151.118C360.326 151.832 360.019 152.138 359.763 152.291L359.457 152.444C359.15 152.598 358.895 152.802 358.895 153.108C358.895 153.21 358.895 153.261 358.946 153.363C359.15 153.822 359.61 153.618 359.866 153.567C359.917 153.567 362.983 152.291 362.983 152.291C363.341 152.138 363.545 152.036 363.596 151.832V151.781V151.475L363.136 150.76C363.085 150.709 362.625 149.791 362.216 149.025L357.566 138.461C357.208 137.695 356.799 136.623 356.544 135.756C356.391 135.347 356.391 135.092 356.391 134.837L356.34 134.48V134.429C356.186 134.021 355.675 134.123 355.369 134.174C355.113 134.225 352.456 134.786 351.996 134.99C351.842 135.041 351.331 135.296 351.536 135.807C351.536 135.96 351.791 136.062 352.2 136.011Z" fill="#777777"/>
<path d="M353.938 165.663C350.207 166.326 347.908 167.653 346.63 169.746C344.995 172.399 345.557 175.411 345.812 176.687C346.119 178.371 346.783 180.565 349.083 182.454C350.463 183.576 352.149 184.087 354.347 184.087C355.522 184.087 356.748 183.934 358.435 183.627L361.603 183.066C365.896 182.249 366.662 182.147 367.582 182.045C368.655 181.892 368.911 182.096 369.115 182.607L369.371 183.372C369.422 183.678 369.524 183.883 369.728 184.036C369.882 184.087 370.188 184.138 370.393 183.883C370.546 183.678 370.495 183.423 370.444 183.117L369.78 179.902C369.78 179.8 369.422 177.656 369.269 176.584C369.217 176.329 369.166 176.176 369.115 176.023C369.013 175.819 368.809 175.717 368.604 175.768C368.4 175.819 368.349 175.87 368.298 175.972C368.144 176.176 368.195 176.38 368.246 176.635L368.349 177.656C368.349 178.473 368.042 178.728 367.173 178.932C366.305 179.136 365.64 179.289 361.756 180.004L357.515 180.769C354.398 181.331 351.996 181.637 350.309 180.463C348.725 179.391 348.265 177.656 348.163 176.993C348.01 176.023 347.908 174.747 348.674 173.369C349.645 171.634 351.485 170.664 355.113 169.95L359.303 169.184C363.596 168.368 364.312 168.266 365.231 168.164C366.305 168.01 366.56 168.215 366.764 168.725L367.02 169.541C367.071 169.644 367.173 170.001 367.378 170.103C367.48 170.154 367.582 170.154 367.633 170.154C367.787 170.154 367.889 170.052 367.991 169.95C368.144 169.746 368.093 169.49 367.991 169.133L367.276 165.612L366.611 161.427C366.56 161.172 366.458 160.508 365.896 160.61C365.385 160.712 365.487 161.274 365.487 161.478C365.538 161.835 365.589 162.345 365.589 162.55C365.589 163.366 365.282 163.621 364.414 163.825C363.545 164.03 362.83 164.183 358.537 164.948L353.938 165.663Z" fill="#777777"/>
<path d="M370.546 193.375C370.24 193.273 367.684 192.61 367.173 192.61C366.867 192.61 366.662 192.661 366.509 192.763C366.509 192.763 366.356 193.018 366.407 193.273C366.458 193.477 366.611 193.63 366.918 193.733C367.224 193.835 367.531 193.988 367.838 194.243C368.298 194.6 368.451 195.111 368.451 196.54V196.897C368.451 196.897 368.4 200.01 368.349 200.929C366.765 200.878 358.384 200.469 356.595 200.367H356.493C353.938 200.265 351.689 200.163 350.514 199.959C349.645 199.806 349.236 199.653 349.185 199.295L349.134 198.224C349.134 198.173 349.134 198.173 349.134 198.122C349.134 197.866 349.032 197.662 348.879 197.56C348.623 197.407 348.368 197.56 348.368 197.56L348.316 197.611C348.163 197.764 348.061 197.969 348.061 198.326L347.959 202L347.652 206.594C347.652 206.9 347.703 207.155 347.857 207.308C347.959 207.41 348.265 207.512 348.521 207.308C348.674 207.206 348.725 207.002 348.725 206.747L348.93 205.267C349.083 204.552 349.543 204.45 350.309 204.45C351.434 204.399 353.478 204.45 355.777 204.552L356.493 204.603C365.078 205.011 367.48 205.114 368.195 205.165C368.144 205.573 368.093 206.492 367.94 208.533C367.735 211.187 366.918 211.595 366.407 211.646H366.1C365.794 211.646 365.231 211.646 365.231 212.208C365.231 212.667 365.691 212.718 365.947 212.769C365.998 212.769 366.918 212.82 367.787 212.922C369.269 213.024 369.32 213.024 369.32 213.024C369.422 213.024 369.473 213.024 369.575 213.024C369.78 213.024 369.984 213.024 370.086 212.871L370.24 212.565L370.137 211.697C370.137 211.646 370.137 211.289 370.086 209.707L370.648 198.173C370.699 197.254 370.802 196.131 370.904 195.264C370.955 194.906 371.057 194.651 371.159 194.447L371.313 194.09V194.039C371.313 193.579 370.853 193.426 370.546 193.375Z" fill="#777777"/>
<path d="M367.582 222.211C367.327 222.007 367.071 222.007 366.969 222.109C366.815 222.211 366.713 222.364 366.611 222.67C366.509 223.027 366.356 223.487 366.253 223.691C365.896 224.456 365.487 224.507 364.618 224.354C363.749 224.201 363.085 224.048 359.303 223.078L353.478 221.598C351.076 220.986 348.776 220.424 347.652 219.965C346.988 219.71 346.477 219.455 346.477 219.046L346.63 218.026C346.681 217.72 346.681 217.515 346.579 217.362C346.374 217.107 346.068 217.158 345.914 217.209C345.761 217.311 345.608 217.515 345.506 217.873L345.046 219.812L344.688 221.394L343.87 224.303L342.542 229.203C342.235 230.274 342.133 230.734 343.002 231.244C343.564 231.55 345.455 232.265 346.119 232.418C346.323 232.469 346.63 232.571 346.834 232.418C347.039 232.265 347.039 232.061 347.039 231.959C346.988 231.652 346.63 231.448 346.528 231.397C345.455 230.938 345.046 230.53 344.944 229.815C344.79 228.998 345.097 227.825 345.301 227.161C346.017 224.201 346.528 224.201 348.214 224.558L354.806 226.243H354.857C354.653 227.008 353.989 229.611 353.784 230.07C353.478 230.836 353.12 231.193 352.558 231.193L351.791 231.091L351.536 231.04C351.178 230.989 350.974 231.244 350.871 231.448C350.769 231.959 351.28 232.112 351.536 232.163C351.638 232.163 352.864 232.571 353.375 232.775C353.478 232.826 354.449 233.183 355.113 233.439L355.368 233.541C355.522 233.592 355.675 233.592 355.777 233.49C355.88 233.439 355.982 233.337 355.982 233.183C356.033 232.928 355.879 232.673 355.726 232.469C355.522 232.163 355.573 231.805 355.675 231.142C355.726 230.734 356.135 229.049 356.748 226.702H356.799L363.903 228.488H363.954C363.749 229.203 363.034 231.908 362.829 232.367C362.318 233.745 361.91 233.796 361.552 233.796C361.245 233.847 360.888 233.796 360.581 233.745H360.53H360.377C360.019 233.694 359.866 233.949 359.814 234V234.051C359.814 234.102 359.814 234.102 359.814 234.153C359.763 234.561 360.121 234.766 360.223 234.817L361.501 235.225L362.063 235.378L363.596 235.99L363.852 236.092H363.903C363.954 236.092 364.005 236.092 364.056 236.092C364.311 236.092 364.465 235.939 364.516 235.684V235.378V235.225L364.669 234C364.771 233.541 365.947 228.845 366.356 227.314L366.918 225.375L367.582 222.925C367.735 222.67 367.735 222.466 367.582 222.211Z" fill="#777777"/>
<path d="M360.581 246.146C360.376 245.993 358.23 244.309 357.77 244.105C357.515 244.003 357.31 243.952 357.157 244.003C356.902 244.105 356.799 244.36 356.799 244.513C356.799 244.769 357.004 244.973 357.106 245.075C357.157 245.075 357.413 245.279 357.719 245.84C357.821 246.044 357.872 246.249 357.872 246.453C357.872 246.912 357.617 247.575 357.208 248.494L357.106 248.698C356.595 249.821 355.828 251.556 355.522 252.169L349.798 249.413C346.017 247.576 345.199 247.167 344.995 247.116L344.637 246.963C342.388 245.891 340.446 244.922 339.475 244.258C338.811 243.85 338.505 243.544 338.505 243.237C338.505 243.186 338.505 243.135 338.505 243.135L338.862 242.166C338.964 242.013 339.016 241.859 339.016 241.706C339.016 241.655 339.016 241.604 339.016 241.553V241.502L338.964 241.451C338.76 241.247 338.505 241.196 338.402 241.247H338.351C338.147 241.298 337.993 241.502 337.84 241.808L336.869 243.901L336.307 245.126L335.694 246.351L334.263 249.209C334.11 249.464 334.008 249.974 334.416 250.229C334.519 250.28 334.672 250.28 334.774 250.28C334.927 250.229 335.081 250.076 335.183 249.821L335.949 248.545C336.307 247.984 336.767 248.035 337.534 248.341C338.658 248.749 340.702 249.719 343.002 250.842L343.155 250.893C343.155 250.893 343.155 250.893 345.863 252.22L346.323 252.475C348.981 253.751 352.762 255.588 353.733 256.047C353.529 256.405 353.069 257.272 352.149 259.008C350.922 261.406 350.003 261.457 349.543 261.253L349.236 261.151C348.93 261.049 348.418 260.845 348.214 261.304C348.01 261.712 348.47 262.019 348.623 262.121L348.674 262.172C348.929 262.325 349.645 262.682 351.587 263.703H351.638C351.842 263.805 352.047 263.907 352.251 263.907C352.456 263.907 352.558 263.805 352.66 263.652V263.601V263.55C352.711 263.448 352.762 263.09 352.762 263.09L352.813 262.784C352.864 262.631 353.018 262.274 353.529 260.998L358.588 250.587C358.997 249.77 359.508 248.8 359.968 248.035C360.172 247.729 360.377 247.524 360.53 247.422L360.836 247.116L360.888 247.065C361.194 246.657 360.785 246.351 360.581 246.146Z" fill="#777777"/>
<path d="M151.162 117.332C152.9 119.169 153.257 119.781 152.951 120.241C152.746 120.598 152.337 121.006 152.133 121.159C151.929 121.364 151.826 121.517 151.826 121.772C151.826 121.976 151.98 122.231 152.286 122.231H152.337C152.593 122.231 152.797 122.078 153.053 121.823L154.944 119.935L155.25 119.577L157.959 117.128C158.163 116.923 158.623 116.464 158.265 116.056C157.908 115.699 157.499 116.107 157.346 116.209C157.09 116.464 156.681 116.821 156.17 117.077C155.659 117.281 154.842 116.821 153.513 115.494L145.285 107.278C145.388 107.278 145.49 107.278 145.643 107.278C146.972 107.38 151.06 107.686 154.79 107.788L166.953 108.094C167.413 108.094 167.924 108.094 168.23 107.839H168.384V107.686C168.435 107.584 168.486 107.482 168.486 107.38C168.486 107.329 168.486 107.227 168.435 107.176C168.384 106.971 168.179 106.716 167.975 106.461L155.506 92.8855C154.382 91.6606 154.33 91.2013 154.586 90.742L155.148 90.0785C155.404 89.8743 155.506 89.6702 155.506 89.4661C155.506 89.313 155.455 89.2109 155.353 89.1088C155.25 89.0067 155.148 88.9557 154.995 88.9557C154.739 88.9047 154.484 89.1598 154.279 89.364L152.644 90.9971L152.286 91.3544L149.68 93.702C149.374 94.0083 149.169 94.2124 149.169 94.4676V94.5186L149.271 94.8248L149.527 94.9779H149.629C149.833 94.9779 149.987 94.8759 150.191 94.6717C150.498 94.4165 150.958 93.9572 151.315 93.8041C151.878 93.6 152.337 93.702 153.564 94.9779L162.405 103.858C161.791 103.807 160.769 103.756 160.258 103.756C160.054 103.756 159.952 103.756 159.952 103.756L153.717 103.501C147.432 103.348 140.788 102.94 140.686 102.94H140.277C139.715 102.889 139.357 102.889 139.051 103.144C138.591 103.603 139.204 104.266 139.46 104.522L151.162 117.332Z" fill="#777777"/>
<path d="M124.742 123.048C124.844 123.201 124.997 123.303 125.202 123.303C125.304 123.303 125.406 123.252 125.457 123.252C125.611 123.201 125.713 123.099 125.815 122.895C126.02 122.588 126.224 122.333 126.479 122.129C126.837 121.772 127.297 121.823 128.064 122.282C128.779 122.742 129.443 123.15 132.458 125.242L137.467 128.713C139.664 130.244 141.606 131.571 142.526 132.336C143.241 132.949 143.292 133.204 143.19 133.51L142.679 134.429C142.526 134.684 142.475 134.888 142.475 135.041C142.475 135.194 142.628 135.449 143.037 135.449H143.088C143.292 135.398 143.497 135.296 143.701 134.99L145.694 131.928L148.351 128.253C148.556 127.998 148.607 127.743 148.556 127.539C148.505 127.386 148.454 127.284 148.351 127.233C148.249 127.182 148.147 127.131 147.994 127.182C147.84 127.233 147.636 127.335 147.534 127.59L146.614 128.713C146.154 129.223 145.745 129.121 145.132 128.815C144.11 128.253 142.372 127.08 140.175 125.549L135.576 122.384C131.999 119.935 131.283 119.424 130.517 118.863C129.648 118.199 129.597 117.893 129.852 117.383L130.261 116.617C130.517 116.209 130.517 115.903 130.21 115.699C130.108 115.648 130.006 115.596 129.852 115.596C129.597 115.648 129.443 115.852 129.239 116.107L127.297 119.067L125.1 122.129C124.895 122.435 124.793 122.639 124.793 122.793C124.793 122.844 124.793 122.844 124.793 122.946L124.742 123.048Z" fill="#777777"/>
<path d="M114.368 203.072C114.317 203.123 114.317 203.174 114.113 203.174L105.221 203.429C105.118 203.429 105.118 203.429 105.118 203.429V203.378C105.016 203.123 105.016 202.715 104.965 201.898C104.914 200.878 105.323 199.806 106.038 199.04C106.907 198.122 108.185 197.611 109.871 197.56C109.973 197.56 110.075 197.56 110.178 197.56C112.528 197.56 113.601 198.479 114.061 199.04C114.419 199.5 114.521 199.857 114.572 200.929C114.572 201.745 114.521 202.562 114.368 203.072ZM117.128 207.104C119.734 207.002 122.033 206.951 123.209 207.053C124.078 207.155 124.486 207.257 124.589 207.614L124.742 208.635C124.742 208.89 124.793 209.094 124.946 209.247C124.997 209.299 125.1 209.401 125.253 209.401C125.355 209.401 125.457 209.35 125.508 209.35C125.815 209.196 125.866 208.788 125.866 208.533L125.662 205.012L125.611 200.724C125.611 200.571 125.611 200.214 125.355 200.01C125.253 199.908 125.151 199.857 124.997 199.908C124.844 199.908 124.742 199.959 124.64 200.061C124.537 200.163 124.486 200.367 124.486 200.52L124.435 201.949C124.384 202.562 124.078 202.766 123.107 202.868C121.931 203.021 119.734 203.123 117.128 203.225H116.514L116.463 200.724C116.463 200.52 116.514 200.469 116.514 200.418L118.405 198.938L120.449 197.407C122.749 195.621 124.026 194.447 124.691 193.171C125.1 192.355 125.202 191.487 125.151 189.905L125.049 187.149C125.049 186.843 124.997 186.69 124.895 186.536L124.793 186.434L124.742 186.383C124.64 186.332 124.589 186.281 124.486 186.281C124.435 186.281 124.333 186.281 124.333 186.332C124.231 186.383 123.924 186.485 123.975 186.945L123.924 187.761C123.873 188.17 123.669 189.343 122.136 190.926C120.654 192.457 118.61 194.141 116.054 196.335L114.879 197.356C114.828 197.305 114.777 197.254 114.726 197.152L114.572 196.948C112.477 194.702 110.535 193.682 108.236 193.784C106.038 193.835 104.556 195.264 104.045 196.029C102.972 197.764 102.87 199.806 102.921 201.592L103.125 205.675L103.177 209.656C103.177 209.911 103.177 210.574 103.739 210.574C104.301 210.523 104.25 209.962 104.25 209.758C104.25 209.35 104.25 208.89 104.301 208.686C104.454 207.87 104.812 207.665 105.681 207.614C106.549 207.512 107.367 207.512 111.353 207.359L117.128 207.104Z" fill="#777777"/>
<path d="M120.807 229.611L113.704 228.794C114.215 228.437 115.646 227.467 119.58 224.762L120.807 229.611ZM138.335 253.292C139.102 253.036 139.613 252.934 139.817 253.24L140.379 254.108C140.533 254.363 140.686 254.516 140.839 254.567H140.89C141.197 254.618 141.35 254.465 141.401 254.363C141.606 254.057 141.35 253.649 141.299 253.496L139.562 250.28L137.773 246.504C137.62 246.249 137.466 246.044 137.262 245.993C137.109 245.942 137.006 245.942 136.853 246.044C136.7 246.146 136.598 246.3 136.598 246.504C136.598 246.606 136.649 246.759 136.7 246.861C136.751 246.963 136.853 247.269 137.211 248.137C137.262 248.239 137.262 248.341 137.262 248.392C137.262 248.749 137.006 249.107 136.393 249.464C135.32 250.076 133.276 251.148 131.079 252.22C131.079 252.22 129.852 252.832 129.086 253.189C129.648 252.016 133.02 244.156 133.48 242.472C133.94 240.788 134.145 239.767 133.531 238.185L132.663 236.399C132.407 235.99 132.152 235.276 132.101 235.123L131.334 232.367L131.181 231.805L130.516 228.794C130.465 228.59 130.363 228.335 130.159 228.233C130.057 228.182 129.903 228.131 129.75 228.182C129.239 228.335 129.392 228.794 129.443 228.998L129.545 229.407C129.75 230.223 129.443 230.376 129.137 230.427C128.83 230.478 128.166 230.529 127.399 230.427L122.953 229.917H122.902L121.318 223.64V223.589L126.735 219.812C126.786 219.761 126.888 219.761 126.939 219.761H126.99C126.99 219.761 127.041 219.812 127.144 220.016C127.297 220.271 127.501 220.322 127.757 220.271C128.217 220.169 128.115 219.659 128.012 219.148L126.684 213.637L126.582 213.33C126.428 212.616 126.326 212.31 125.968 212.259C125.764 212.208 125.611 212.31 125.559 212.361C125.355 212.565 125.355 212.871 125.406 212.973L125.611 214.147C125.611 214.759 125.355 215.627 123.26 217.209L107.622 228.59C107.009 229.049 106.703 229.407 106.805 229.815C106.958 230.325 107.469 230.376 108.389 230.529L127.961 233.081C128.983 233.234 129.852 233.387 130.465 233.949C130.67 234.102 130.823 235.072 130.823 235.888C130.976 237.419 130.414 239.104 129.954 240.635L129.852 240.941C129.443 242.37 126.684 249.668 125.815 251.607C124.129 251.046 118.763 249.26 117.587 248.851C116.157 248.341 115.135 247.78 114.317 247.065C113.908 246.657 113.499 246.095 113.346 245.789C113.244 245.585 113.142 245.381 112.937 245.33H112.886L112.528 245.381L112.324 245.585L112.273 245.636C112.222 245.84 112.273 245.993 112.375 246.3L113.959 249.311L115.237 252.016C115.39 252.322 115.492 252.424 115.697 252.475H115.748H116.003L116.105 252.424C116.463 252.22 116.361 251.811 116.361 251.658C116.361 251.556 116.31 251.505 116.565 251.352C116.923 251.199 117.894 251.403 118.814 251.658L118.967 251.709C119.632 251.863 121.625 252.475 123.515 253.087L124.18 253.292C125.713 253.751 126.53 254.006 126.939 254.159L126.479 254.363C126.173 254.516 125.917 254.669 125.917 254.669L125.508 254.874C122.289 256.456 121.522 256.813 120.756 257.17C119.785 257.579 119.478 257.476 119.121 257.068C119.121 257.017 118.916 256.711 118.814 256.558C118.763 256.507 118.763 256.456 118.712 256.405C118.456 255.843 118.047 255.945 117.894 256.047C117.434 256.303 117.69 256.864 117.792 257.119L119.427 260.232L121.165 263.907C121.318 264.213 121.471 264.417 121.676 264.519H121.727L121.982 264.468H122.033C122.34 264.315 122.391 264.009 122.187 263.55C122.033 263.193 121.829 262.784 121.778 262.529C121.573 261.712 121.829 261.406 122.596 260.998C123.362 260.539 123.975 260.232 127.859 258.293L132.765 255.843C135.013 254.772 137.16 253.7 138.335 253.292Z" fill="#777777"/>
<path d="M161.638 287.588C161.382 288.353 160.616 290.599 159.389 294.222L159.338 294.324L155.455 291.262L161.638 287.588ZM160.974 306.471C160.616 305.961 160.309 305.093 161.025 302.643L166.646 284.117C166.85 283.454 166.953 282.943 166.544 282.637C166.135 282.331 165.675 282.586 164.857 282.994L147.687 292.691C146.256 293.508 145.387 293.763 144.416 293.202L143.701 292.691H143.65C143.394 292.589 143.19 292.589 142.985 292.691C142.781 292.793 142.73 293.049 142.73 293.1V293.151C142.73 293.355 142.883 293.508 143.139 293.763L145.387 295.498L145.847 295.856L148.198 297.846C148.351 297.999 148.658 298.203 148.913 298.05C149.169 297.948 149.22 297.744 149.22 297.642C149.271 297.336 149.016 297.08 148.913 297.029L148.556 296.774C148.249 296.57 148.096 296.315 148.096 296.162C148.096 296.009 148.147 295.907 148.249 295.753C148.453 295.498 149.016 295.09 149.629 294.682L153.462 292.436C153.462 292.436 153.462 292.436 153.513 292.436L158.572 296.519C158.572 296.519 158.572 296.519 158.572 296.57L156.528 302.847C156.528 302.95 156.477 303.001 156.426 303.001L156.374 303.052H156.323H156.272C155.914 302.847 155.659 302.847 155.455 303.103C155.148 303.46 155.557 303.817 155.914 304.123L160.258 307.747C160.974 308.308 161.28 308.512 161.536 308.512C161.536 308.512 161.587 308.512 161.638 308.512C161.894 308.461 161.945 308.308 161.996 308.206C162.047 307.9 161.842 307.645 161.74 307.543L160.974 306.471Z" fill="#777777"/>
<path d="M194.191 301.265L194.957 301.572C195.57 301.878 195.826 301.623 195.928 301.469C196.184 300.959 195.621 300.704 195.315 300.551L193.22 299.53L192.76 299.326L189.642 297.642C189.591 297.591 189.54 297.591 189.489 297.54C189.182 297.387 188.876 297.234 188.671 297.489C188.518 297.642 188.467 297.846 188.518 297.948C188.569 298.254 188.876 298.458 188.927 298.458C189.234 298.611 189.847 298.918 190.153 299.224C190.307 299.428 190.409 299.632 190.409 299.887C190.409 300.245 190.256 300.806 189.796 301.725C189.591 302.133 185.401 310.809 184.328 313.004C184.072 312.187 183.612 310.605 183.612 310.605L181.824 304.634C179.882 298.611 178.042 292.232 178.042 292.181L177.94 291.824C177.787 291.211 177.582 290.854 177.276 290.701C177.122 290.65 176.969 290.65 176.918 290.701C176.662 290.803 176.407 291.058 176.151 291.568L168.026 306.828C166.851 309.023 166.442 309.584 165.88 309.482C165.471 309.431 165.011 309.176 164.704 309.023C164.5 308.921 164.295 308.819 164.04 308.921C163.733 309.074 163.682 309.38 163.733 309.533C163.784 309.788 164.04 309.89 164.347 310.095L166.748 311.268L167.157 311.473L167.822 311.881L170.326 313.208C170.683 313.412 170.939 313.463 171.143 313.361C171.45 313.259 171.501 313.004 171.501 312.748C171.45 312.595 171.297 312.442 170.99 312.289C170.632 312.136 170.172 311.83 169.815 311.473C169.457 311.064 169.61 310.095 170.428 308.461L175.436 297.999L175.538 298.305C176.151 300.551 177.071 303.97 178.144 307.134L179.831 312.391L181.875 318.72C182.028 319.23 182.233 319.689 182.641 319.893C182.692 319.893 182.744 319.945 182.795 319.945C183.255 319.945 183.663 319.281 183.715 319.179L192.402 302.95C193.22 301.367 193.628 301.163 194.191 301.265Z" fill="#777777"/>
<path d="M220.151 307.543L217.902 306.981L217.391 306.879L214.018 305.859C213.61 305.757 213.303 305.706 213.099 305.859C213.099 305.859 212.843 306.012 212.894 306.318C212.894 306.726 213.303 306.828 213.507 306.879C213.814 306.981 214.529 307.135 214.836 307.39C215.143 307.645 215.245 307.9 215.245 308.359C215.245 308.717 215.194 309.125 214.989 309.89L214.938 309.993C214.683 311.064 212.485 319.791 211.872 322.037C211.463 321.323 210.697 319.893 210.646 319.791L207.682 314.382C204.871 309.482 201.856 303.817 201.447 302.95L201.243 302.541C200.987 302.082 200.834 301.725 200.476 301.623C199.863 301.47 199.607 302.286 199.505 302.694L194.651 319.281C193.986 321.527 193.68 322.292 193.066 322.343C192.709 322.343 192.3 322.292 191.84 322.139C191.687 322.088 191.176 321.935 191.022 322.343C190.971 322.445 190.92 322.598 190.971 322.752C191.073 322.956 191.329 323.109 191.738 323.211L194.804 323.925L198.279 324.946C198.637 325.048 198.943 325.15 199.199 324.895C199.352 324.691 199.352 324.487 199.301 324.385C199.199 324.078 198.79 323.976 198.739 323.925C198.279 323.772 197.819 323.619 197.41 323.364C196.95 323.058 196.95 322.088 197.41 320.251L200.221 308.972L200.374 309.278C201.141 310.758 202.878 314.229 204.667 317.342L207.324 322.037L210.697 327.906C210.901 328.263 211.157 328.723 211.566 328.876L211.719 328.927H211.77C211.974 328.978 212.128 328.876 212.281 328.723C212.434 328.57 212.536 328.314 212.639 327.957L217.851 310.299C218.311 308.666 218.669 308.41 219.231 308.41L220.049 308.564C220.406 308.615 220.662 308.615 220.815 308.41C220.968 308.257 220.968 308.002 220.968 307.951C220.866 307.798 220.56 307.696 220.151 307.543Z" fill="#777777"/>
<path d="M267.574 88.3433L270.078 89.2619L270.538 89.415L273.86 90.844C274.115 90.9461 274.728 91.2013 274.984 90.6399C275.035 90.5378 275.035 90.3847 274.984 90.2826C274.882 90.0274 274.524 89.8743 274.473 89.8743C274.064 89.7212 273.604 89.5171 273.195 89.1598C272.786 88.8026 272.889 87.8329 273.502 86.0977L277.488 75.227L277.59 75.5332C278.152 77.0643 279.532 80.7389 281.014 84.0562L283.16 89.0578L285.869 95.2331C286.073 95.6414 286.278 96.1518 286.737 96.3559H287.095H287.146C287.402 96.2538 287.606 95.9987 287.76 95.4883L294.812 78.4933C295.476 76.9622 295.834 76.7071 296.396 76.7581L297.214 76.9622C297.52 77.0643 297.725 77.1153 297.929 77.0133L298.031 76.9622L298.236 76.4519L298.185 76.3498C298.082 76.1457 297.878 75.9926 297.469 75.8394L295.272 75.0229L294.812 74.8698L291.541 73.4918C291.183 73.3387 290.57 73.1345 290.366 73.6449C290.366 73.6959 290.315 73.798 290.315 73.849C290.315 74.2063 290.724 74.3594 290.877 74.4104C291.286 74.5635 291.848 74.8187 292.154 75.0739C292.41 75.3291 292.512 75.5332 292.512 75.8394C292.512 76.2477 292.359 76.7581 292.052 77.5747C291.183 79.9223 288.373 87.5267 287.708 89.3129C287.555 88.9047 287.249 88.2412 286.789 87.0163L284.387 81.1982C282.394 76.7071 280.452 71.8586 279.481 69.3579L279.276 68.7965C279.072 68.2861 278.97 67.9289 278.612 67.7758C278.459 67.7247 278.306 67.7247 278.203 67.7758C277.897 67.9289 277.692 68.3372 277.539 68.6944L270.947 84.6687C269.976 87.0163 269.618 87.5777 269.056 87.5267C268.749 87.4756 268.341 87.3736 267.881 87.2205C267.267 86.9653 267.063 87.2205 267.012 87.4246C266.705 88.037 267.267 88.2412 267.574 88.3433Z" fill="#777777"/>
<path d="M303.806 205.879C303.755 205.879 303.755 205.879 303.704 205.93C303.755 205.879 303.806 205.879 303.806 205.879Z" fill="#777777"/>
<path d="M336.358 175.053C329.664 162.601 314.486 166.479 312.34 167.296C305.237 170.001 301.609 176.482 301.046 183.423C294.761 174.849 297.316 163.877 297.367 163.162C297.623 161.376 297.776 158.671 297.623 157.548C298.134 157.344 299.667 156.629 300.74 155.558C306.566 149.586 300.944 147.953 298.236 151.322C298.542 146.882 296.192 148.668 294.914 149.178C294.812 146.014 292.563 147.698 292.052 148.464C290.673 143.819 287.044 147.545 286.022 149.178C280.094 147.596 279.277 150.148 279.226 150.148C281.883 151.015 282.19 151.526 282.241 152.189C282.292 153.006 281.014 154.129 279.226 154.18C279.328 154.435 282.649 155.507 283.978 153.72C285.358 151.781 284.131 150.454 283.978 150.454C285.46 150.607 286.687 150.862 287.913 151.271C292.87 152.853 294.454 153.618 294.71 158.109C294.812 160.253 294.301 162.907 293.943 164.489C293.126 168.419 293.279 175.155 293.943 178.677C294.965 184.036 301.251 194.753 303.653 189.701C304.726 187.506 305.186 182.607 307.025 177.656C309.223 171.736 315.049 168.215 323.378 169.899C335.541 173.318 335.388 183.168 334.417 185.363C334.417 185.363 334.621 178.218 328.233 176.074C329.562 178.881 330.073 184.597 328.744 188.884C329.255 184.801 326.7 178.983 319.086 177.197C324.758 187.455 319.852 200.622 319.341 201.133C328.438 193.733 323.736 182.964 323.736 182.964C323.736 182.964 328.489 187.557 325.729 197.662C333.139 192.61 331.248 180.565 331.299 180.667C333.037 183.678 333.394 185.567 332.73 191.181C332.73 191.028 334.212 191.13 336.307 184.954C338.454 178.728 336.358 175.053 336.358 175.053Z" fill="#777777"/>
<path d="M300.995 211.034C305.952 210.83 310.654 208.38 312.902 206.543C304.164 208.89 297.009 207.614 293.739 206.236C287.964 203.838 281.576 195.264 280.554 193.579C278.459 190.109 277.539 182.964 279.174 176.482C280.401 171.481 284.898 161.325 285.051 158.824C285.358 156.527 283.109 155.813 282.905 155.711C282.854 155.711 282.854 155.66 282.803 155.711C274.422 158.977 275.955 164.438 278.765 164.132C278.817 164.693 278.663 166.122 279.992 166.581C279.481 168.113 275.086 175.666 274.831 181.127C274.115 195.111 281.269 200.622 282.905 202.97C286.38 207.972 282.445 211.493 280.605 211.901C278.765 212.31 277.335 212.412 275.802 211.952C274.575 211.595 272.786 210.932 271.509 210.932C269.311 210.983 268.341 212.616 267.727 213.688C267.727 213.688 269.925 213.586 271.611 213.79C273.349 213.994 273.451 214.045 274.013 214.249C274.013 216.035 273.757 217.056 273.553 217.566C273.349 218.077 273.502 218.689 273.502 218.689C275.188 218.281 277.181 216.903 277.386 215.066C280.707 215.576 282.189 215.627 284.182 216.75C284.182 216.035 284.847 214.81 285.664 214.045C286.789 212.973 290.775 212.003 290.826 212.054C296.498 216.393 293.739 228.743 293.432 229.254C293.125 229.815 292.052 230.223 289.701 229.866C289.293 230.172 288.986 230.121 288.526 230.938C286.737 230.734 283.263 230.274 281.167 231.04C278.203 232.163 275.239 234.868 274.626 235.939C274.371 236.399 273.706 237.47 274.524 237.879C275.188 238.185 278.459 238.083 279.992 238.032C281.321 237.981 301.302 238.032 302.937 237.93C306.77 237.879 310.96 237.368 311.42 237.164C312.442 236.858 312.289 236.348 312.289 236.348C312.238 235.99 310.705 232.877 306.157 232.469C301.148 231.55 297.469 231.601 297.265 231.448C297.827 230.836 298.798 230.223 298.951 229.611C299.155 228.743 298.9 223.231 299.053 220.935C299.667 215.219 300.331 213.33 300.995 211.034Z" fill="#777777"/>
<path d="M186.576 203.378C182.641 205.675 174.976 208.941 174.976 208.941C172.216 208.89 166.902 203.072 164.755 198.224C162.609 193.426 162.456 182.198 162.456 179.136H199.965C199.965 179.136 193.424 181.178 192.249 188.782C191.073 196.386 193.679 199.193 186.576 203.378ZM169.355 217.464C170.888 212.82 184.634 208.431 188.62 206.389C191.84 216.137 173.034 214.964 171.859 224.864C168.179 220.628 169.355 217.464 169.355 217.464ZM141.095 178.269C140.686 175.309 141.044 169.95 145.694 166.735C150.804 163.162 158.93 162.652 164.244 164.03C166.851 164.693 166.186 165.663 165.573 165.561C160.718 164.642 156.374 164.897 151.826 166.837C142.883 170.664 142.066 181.892 153.922 184.954C154.381 186.69 154.433 187.098 154.944 189.241C144.468 188.578 141.504 181.229 141.095 178.269ZM206.762 175.87C205.995 173.675 148.862 174.9 148.862 174.9C148.862 174.9 150.395 164.999 166.237 167.959C172.574 169.133 174.312 172.246 184.174 172.246C184.737 172.246 184.839 171.226 184.328 171.124C181.364 170.664 181.619 169.49 181.977 168.878C182.437 168.01 184.941 169.337 185.707 169.184C185.912 169.133 186.116 168.623 186.218 168.215C186.27 167.959 186.116 167.704 185.861 167.5C180.699 164.489 177.838 164.081 173.954 164.846C172.421 165.152 167.515 163.162 165.777 162.601C158.981 160.508 149.425 160.763 144.416 164.285C138.233 168.623 133.787 176.84 140.379 186.588C143.139 190.67 148.811 192.508 156.017 193.171C159.134 207.155 168.792 210.421 170.683 211.289C170.734 211.34 167.055 213.075 165.828 216.035C165.369 217.107 164.091 223.18 171.194 227.722C170.479 230.427 167.924 232.52 165.369 233.336C163.682 233.847 162.251 233.796 161.178 234.816C160.361 235.582 160.258 237.879 160.258 238.032C170.632 238.032 180.802 238.032 191.175 238.032C191.482 236.092 190.869 234.663 188.671 234.102C185.605 232.979 185.759 233.541 182.846 231.295C179.728 229.254 180.035 220.577 180.188 219.557C180.597 218.791 187.803 216.597 190.153 213.33C192.555 210.064 192.044 207.257 191.124 205.063C197.512 200.469 196.081 191.028 196.592 188.731C197.461 184.75 199.25 183.729 202.265 182.607C203.951 181.943 206.404 182.198 207.017 181.637C207.528 181.127 207.579 176.84 206.762 175.87Z" fill="#777777"/>
<path d="M245.702 215.066C245.651 212.871 245.651 212.412 245.6 209.758C256.178 205.93 262.157 201.796 263.793 195.315C268.443 176.738 247.286 173.471 245.14 172.91C245.089 171.481 245.089 170.511 245.038 169.439C258.427 165.357 262.873 158.467 262.157 151.322C261.851 148.004 260.88 140.502 243.965 136.317C243.658 125.6 243.096 121.721 241.869 119.781C240.643 117.842 239.11 117.281 237.883 117.23C234 117.128 232.467 122.384 231.853 127.131C231.853 127.182 231.853 127.182 231.853 127.233C231.598 129.223 231.393 131.571 231.24 134.276C229.605 133.918 228.123 133.561 226.539 132.387C224.443 130.754 225.414 128.355 226.385 127.029C230.371 122.486 232.007 116.77 232.058 114.933C232.109 113.096 232.16 112.228 231.547 110.544C231.087 109.115 230.32 108.502 229.451 108.145C229.809 107.431 229.963 106.716 230.474 106.257C232.364 104.471 231.956 105.032 234.971 101.613C235.175 101.102 234.715 100.949 234.511 101.204C233.08 102.582 231.087 103.348 230.576 103.552C228.889 104.215 230.116 101.051 230.371 99.1119C230.422 98.6015 229.911 98.7036 229.758 98.9077C228.889 100.337 228.583 101.153 227.969 103.654C227.51 105.542 228.685 106.155 227.714 107.737C226.947 107.737 226.436 107.788 225.465 108.196C223.421 109.115 216.216 115.29 217.698 122.588C218.362 124.834 216.165 128.458 215.705 130.295C213.456 139.685 223.472 146.065 230.78 147.494C230.78 147.545 230.78 147.647 230.78 147.698C230.678 149.382 230.678 150.658 230.576 153.822C220.815 156.017 215.603 159.436 212.843 164.795C211.208 167.959 210.952 173.42 212.843 176.687C216.625 183.168 222.502 185.567 229.707 188.68C229.707 190.109 229.554 195.417 229.554 195.417C221.479 197.56 214.427 200.061 210.85 205.879C208.499 209.656 209.266 216.546 211.566 220.22C214.478 224.967 219.64 227.723 228.787 230.632C228.736 232.163 228.685 235.99 228.634 236.96C222.757 238.746 219.282 242.268 218.158 246.606C215.96 255.741 222.093 260.386 228.174 263.448L227.816 277.687C227.663 279.932 227.612 282.076 227.663 284.015C227.714 284.73 228.327 286.21 231.751 286.975C234.46 287.588 236.044 287.639 239.468 287.537C242.84 287.435 245.753 286.567 246.52 284.883C246.826 284.27 246.724 283.301 246.724 282.586L246.418 262.58L246.06 248.698C253.316 246.81 261.902 243.289 263.844 236.399C267.574 223.538 256.28 217.924 245.702 215.066ZM237.424 125.446C237.577 122.537 240.183 122.231 240.387 124.885C240.847 131.316 241.001 139.073 241.205 151.628C239.519 152.087 237.066 152.495 237.066 152.495C237.066 152.495 237.066 129.325 237.424 125.446ZM219.384 130.499C220.457 125.906 221.377 123.966 221.02 122.384C219.844 116.515 225.057 112.432 226.181 111.565C227.203 110.799 228.532 111.003 228.889 111.871C229.758 113.861 229.298 118.25 223.932 125.293C222.757 126.824 218.515 134.735 231.036 137.389C230.933 139.532 230.882 141.268 230.882 143.411C223.779 142.084 218.158 135.96 219.384 130.499ZM217.442 168.623C217.442 160.304 234.408 157.701 242.074 156.119C248.666 154.792 248.564 147.443 244.425 145.402C244.425 145.402 244.271 141.982 244.22 139.685C250.761 140.961 256.076 144.075 257.916 147.902C260.318 152.904 257.456 159.181 251.579 162.55C246.264 165.561 237.781 166.581 232.722 167.5C227.663 168.368 226.385 173.369 230.167 174.951C230.167 176.789 230.014 179.494 229.911 181.637C223.37 179.902 217.442 176.023 217.442 168.623ZM241.869 192.865L236.912 193.733V171.175L241.41 170.205L241.869 192.865ZM215.296 211.493C215.347 200.265 242.892 197.407 242.789 197.305C249.637 196.386 250.71 187.2 245.447 185.414C245.396 183.066 245.293 180.157 245.242 177.044C251.323 178.167 260.471 182.096 260.471 189.395C260.471 195.978 257.098 199.908 250.404 202.613C244.731 204.909 237.935 206.185 231.444 207.921C225.414 209.554 227.101 214.759 229.196 216.035C229.196 216.035 229.043 221.496 228.94 223.589C224.035 222.823 215.245 220.016 215.296 211.493ZM242.432 234.051L236.912 235.021V211.748L242.125 210.472L242.432 234.051ZM236.146 279.422L236.401 250.434L242.534 249.413C242.534 249.413 242.891 277.687 242.891 279.218C242.891 280.596 235.993 280.953 236.146 279.422ZM256.791 239.869C254.083 242.37 246.724 244.615 236.912 245.993C229.4 247.014 227.816 250.331 228.429 252.322C228.378 253.751 228.327 255.996 228.276 257.477C226.181 256.405 222.604 253.292 222.859 249.566C223.677 239.512 234.306 239.92 243.658 238.185C253.01 236.654 253.112 226.753 245.907 225.069C245.907 222.925 245.855 220.833 245.804 218.893C254.032 220.577 257.456 223.487 259.449 226.906C262.311 231.754 260.777 236.246 256.791 239.869Z" fill="#777777"/>
<path d="M87.539 430.233L74.4056 398.693H74.2012V430.233H61.9365V368.378H74.2012V397.162H74.3545L87.7945 368.378H99.957L85.6482 397.06L101.337 430.233H87.539Z" fill="#777777"/>
<path d="M121.727 431.101C110.126 431.101 104.25 425.538 104.25 415.892C104.25 403.49 113.448 399.612 126.377 397.928V396.294C126.377 391.701 123.669 389.558 119.427 389.558C115.39 389.558 111.762 390.731 109.155 392.058L106.702 384.403C109.513 382.872 114.368 380.779 121.676 380.779C130.772 380.779 137.62 385.271 137.62 398.591V427.477C134.145 429.774 129.29 431.101 121.727 431.101ZM126.428 404.97C118.967 405.94 115.288 408.492 115.288 415.484C115.288 420.434 117.741 423.19 122.34 423.19C123.975 423.19 125.559 422.731 126.479 422.374V404.97H126.428Z" fill="#777777"/>
<path d="M167.464 390.476C164.755 389.149 161.689 389.2 159.492 390.272V430.182H147.84V384.403C152.235 381.8 158.47 380.371 169.61 380.881L167.464 390.476Z" fill="#777777"/>
<path d="M190.307 431.101C178.4 431.101 172.574 420.332 172.574 405.94C172.574 391.548 178.4 380.881 190.307 380.881C202.265 380.881 208.039 391.599 208.039 405.94C208.039 420.332 202.265 431.101 190.307 431.101ZM190.307 389.507C185.145 389.507 184.277 396.856 184.277 405.685C184.277 414.514 185.247 421.71 190.307 421.71C195.519 421.71 196.439 414.514 196.439 405.787C196.439 396.958 195.519 389.507 190.307 389.507Z" fill="#777777"/>
<path d="M217.238 430.233V363.121L229.043 359.651V430.233H217.238Z" fill="#777777"/>
<path d="M245.395 373.839C241.972 373.839 239.161 370.981 239.161 367.561C239.161 364.04 241.972 361.284 245.395 361.284C248.922 361.284 251.783 364.091 251.783 367.561C251.783 370.981 248.922 373.839 245.395 373.839ZM239.621 430.233V381.749H251.323V430.233H239.621Z" fill="#777777"/>
<path d="M284.131 430.233V395.988C284.131 391.752 282.394 389.404 278.254 389.404C275.802 389.404 274.626 389.66 273.4 390.323V430.233H261.748V384.454C265.581 382.31 271.1 380.83 278.51 380.83C290.366 380.83 295.885 385.679 295.885 395.937V430.182L284.131 430.233Z" fill="#777777"/>
<path d="M315.713 431.101C310.194 431.101 306.412 429.927 303.653 427.528L306.514 418.954C307.894 420.23 310.756 421.659 313.924 421.659C316.99 421.659 318.983 419.873 318.983 417.168C318.983 413.647 317.45 412.218 313.107 409.002C308.507 405.583 304.47 401.347 304.47 394.967C304.47 386.7 309.938 380.83 318.064 380.83C323.276 380.83 327.16 382.157 329.971 384.454L327.16 391.905C325.984 390.833 323.736 389.558 320.772 389.558C317.91 389.558 316.122 391.701 316.122 394.151C316.122 397.315 318.37 399.203 322.663 402.317C327.722 406.093 331.299 409.615 331.299 416.709C331.299 425.028 324.707 431.101 315.713 431.101Z" fill="#777777"/>
<path d="M363.596 430.233L351.28 404.868H351.076V430.233H339.476V363.121L351.076 359.651V403.95H351.28L363.698 381.749H375.248L361.756 403.95L376.218 430.233H363.596Z" fill="#777777"/>
<path d="M397.171 431.101C385.57 431.101 379.693 425.538 379.693 415.892C379.693 403.49 388.892 399.612 401.872 397.928V396.294C401.872 391.701 399.163 389.558 394.922 389.558C390.885 389.558 387.308 390.731 384.65 392.058L382.197 384.403C385.008 382.872 389.863 380.779 397.119 380.779C406.216 380.779 413.063 385.271 413.063 398.591V427.477C409.588 429.774 404.734 431.101 397.171 431.101ZM401.872 404.97C394.36 405.94 390.732 408.492 390.732 415.484C390.732 420.434 393.133 423.19 397.733 423.19C399.368 423.19 401.003 422.731 401.872 422.374V404.97Z" fill="#777777"/>
<path d="M80.6912 506.277V444.421H93.0069V506.277H80.6912Z" fill="#777777"/>
<path d="M126.122 506.277V472.032C126.122 467.796 124.435 465.448 120.296 465.448C117.843 465.448 116.668 465.703 115.441 466.367V506.277H103.841V460.498C107.725 458.354 113.193 456.925 120.603 456.925C132.509 456.925 137.977 461.773 137.977 472.032V506.277H126.122Z" fill="#777777"/>
<path d="M157.754 507.144C152.235 507.144 148.453 505.971 145.694 503.521L148.556 494.998C149.884 496.274 152.797 497.703 155.914 497.703C158.981 497.703 160.974 495.917 160.974 493.212C160.974 489.69 159.44 488.261 155.097 485.046C150.498 481.678 146.46 477.442 146.46 471.011C146.46 462.743 151.928 456.874 160.054 456.874C165.266 456.874 169.15 458.201 171.961 460.447L169.15 467.898C167.975 466.826 165.726 465.55 162.762 465.55C159.9 465.55 158.112 467.694 158.112 470.143C158.112 473.308 160.36 475.196 164.653 478.309C169.712 482.086 173.289 485.607 173.289 492.701C173.289 501.02 166.748 507.144 157.754 507.144Z" fill="#777777"/>
<path d="M195.979 506.889C188.058 506.889 183.714 501.48 183.714 492.957V466.52H179.371V457.793H183.714V447.279L195.417 443.605V457.793H201.805V466.52H195.417V491.681C195.417 496.172 196.95 497.703 199.352 497.703C200.425 497.703 201.14 497.448 201.805 497.244V505.613C201.089 506.175 198.687 506.889 195.979 506.889Z" fill="#777777"/>
<path d="M215.602 449.882C212.178 449.882 209.419 447.024 209.419 443.605C209.419 440.083 212.178 437.327 215.602 437.327C219.128 437.327 221.99 440.134 221.99 443.605C221.99 446.973 219.128 449.882 215.602 449.882ZM209.828 506.277V457.793H221.53V506.277H209.828Z" fill="#777777"/>
<path d="M246.571 506.889C238.65 506.889 234.357 501.48 234.357 492.957V466.52H230.064V457.793H234.357V447.279L246.06 443.605V457.793H252.447V466.52H246.06V491.681C246.06 496.172 247.593 497.703 250.046 497.703C251.119 497.703 251.834 497.448 252.447 497.244V505.613C251.681 506.175 249.279 506.889 246.571 506.889Z" fill="#777777"/>
<path d="M277.283 507.145C266.45 507.145 260.266 502.449 260.266 490.354V457.793H271.969V491.681C271.969 495.559 273.859 497.958 277.641 497.958C279.43 497.958 281.065 497.499 282.291 496.784V457.742H294.096V503.317C290.621 505.613 284.898 507.145 277.283 507.145Z" fill="#777777"/>
<path d="M318.881 506.889C310.96 506.889 306.616 501.48 306.616 492.957V466.52H302.324V457.793H306.616V447.279L318.319 443.605V457.793H324.707V466.52H318.319V491.681C318.319 496.172 319.852 497.703 322.305 497.703C323.378 497.703 324.094 497.448 324.707 497.244V505.613C323.991 506.175 321.589 506.889 318.881 506.889Z" fill="#777777"/>
<path d="M342.184 487.343C342.899 494.334 345.965 497.856 351.74 497.856C356.697 497.856 360.019 496.529 361.909 495.304L364.516 503.47C361.45 505.613 356.646 507.093 350.207 507.093C337.431 507.093 330.583 497.652 330.583 481.831C330.583 467.285 337.227 456.823 348.776 456.823C361.041 456.823 366.969 467.234 366.049 484.331L342.184 487.343ZM348.469 465.346C344.126 465.346 341.315 471.266 341.417 479.84L354.551 478.207C354.602 469.99 352.813 465.346 348.469 465.346Z" fill="#777777"/>
<path d="M388.892 506.889C380.971 506.889 376.627 501.48 376.627 492.957V466.52H372.283V457.793H376.627V447.279L388.33 443.605V457.793H394.718V466.52H388.33V491.681C388.33 496.172 389.863 497.703 392.265 497.703C393.338 497.703 394.053 497.448 394.718 497.244V505.613C394.002 506.175 391.6 506.889 388.892 506.889Z" fill="#777777"/>
</g>
<defs>
<clipPath id="clip0_29_98">
<rect width="475" height="569" fill="white"/>
</clipPath>
</defs>
</svg>
