<svg width="443" height="413" viewBox="0 0 443 413" fill="none" xmlns="http://www.w3.org/2000/svg">
<path d="M197.86 67.86C198.01 68.02 197.93 68.13 197.78 68.26C197.5 68.48 195.96 70.74 195.79 71.02C195.68 71.21 195.66 70.88 195.72 70.69C195.9 70.16 196.42 68.02 194.62 66.42C193.34 65.29 191.37 65.95 190.65 67.02C189.68 68.45 189.66 69.75 190.65 73.49C191.68 77.39 191.25 78.82 189.83 80.47C188.51 81.99 185.45 82.82 182.75 80.95C179.98 79.02 179.87 78.58 179.44 78.41C179.1 78.27 179.11 78 179.45 77.6C179.94 77.02 181.58 74.79 181.86 74.37C182.05 74.09 182.09 74.41 181.89 74.83C181.63 75.4 180.67 78.16 182.96 79.71C185.18 81.21 186.61 80.23 187.36 79.34C188.19 78.36 188.66 77.41 187.5 72.94C186.27 68.23 187.12 66.68 188.9 65.29C190.74 63.85 193.18 63.76 195.17 65.33C196.24 66.17 196.78 66.76 197.19 67.15C197.42 67.37 197.54 67.62 197.66 67.73C197.74 67.81 197.79 67.77 197.86 67.86Z" fill="#777777"/>
<path d="M50.0599 121.13C50.1299 120.97 50.3099 121.05 50.5399 121.13C51.1199 121.34 52.9099 121.63 53.4999 121.65C53.9999 121.67 53.1599 122.03 52.8999 122.06C52.1999 122.15 50.7999 122.56 50.1799 124.89C49.7399 126.54 50.7399 127.86 52.0099 128.12C54.0599 128.54 55.1399 127.76 58.1499 125.34C61.2399 122.86 63.3299 122.55 65.2999 123.11C67.1299 123.63 69.2999 126.04 68.5799 129.13C67.9599 131.82 67.2199 132.32 66.9999 132.89C66.8699 133.24 66.7199 133.36 66.2099 133.22C65.5599 133.04 63.0999 132.68 62.6499 132.63C61.8599 132.54 62.1899 132.24 62.6499 132.18C63.9199 132.02 66.6799 131.68 67.2299 128.96C67.6399 126.94 66.2799 125.98 65.0899 125.69C63.8299 125.38 62.4699 125.42 58.9299 128.35C55.1199 131.51 53.4899 131.5 51.4399 130.56C49.2699 129.57 48.3599 127.61 48.8299 124.97C49.1299 123.29 49.8699 121.81 49.9899 121.64C50.0599 121.52 50.0199 121.24 50.0599 121.13Z" fill="#777777"/>
<path d="M166.92 232.31C166.65 232.31 166.71 232.08 166.67 231.92C166.67 231.92 166 229.68 165.93 229.5C165.86 229.3 166.06 229.26 166.2 229.42C166.55 229.81 168 231.17 170.06 230.65C171.69 230.24 172.6 228.49 172.19 227.27C171.65 225.64 170.05 224.87 166.54 223.25C163.37 221.79 162.35 220.32 162.06 218.5C161.72 216.37 163.1 213.36 166.13 212.42C168.78 211.6 169.42 211.68 169.93 211.42C170.33 211.21 170.39 212.04 170.45 212.2C170.7 212.91 171.39 215.1 171.55 215.51C171.69 215.89 171.41 216.03 171.21 215.61C170.95 215.05 169.05 212.79 166.66 213.57C164.3 214.34 163.95 216.02 164.28 217.14C164.65 218.38 164.87 219.36 169.31 221.23C173.64 223.05 174.48 224.92 174.5 227.01C174.52 229.34 172.67 231.15 170.21 231.77C168.89 232.11 168.63 232.01 168.08 232.09C167.76 232.14 167.52 232.16 167.35 232.18C167.22 232.2 167.13 232.31 166.92 232.31Z" fill="#777777"/>
<path d="M199.96 72.75C200.44 72.54 201.25 72.12 201.74 71.7C201.96 71.52 202.39 71.7 202.66 71.96C202.84 72.14 206.69 75.95 207.46 76.77C208.49 77.87 211.92 81.01 212.36 81.44C212.8 81.86 213.21 82.1 212.78 82.39C212.34 82.68 211.39 83.22 211.1 83.36C210.84 83.49 210.91 83.39 210.91 83.07C210.91 82.74 210.69 82.26 209.73 81.26C208.77 80.26 207.66 79.11 207.46 78.95C207.26 78.79 207.19 78.76 207.02 78.91C206.74 79.16 202.96 83 202.11 83.88C201.33 84.68 196.39 89.53 196.25 90.29C196.1 91.07 196.35 91.24 196.45 91.39C196.57 91.58 196.67 92.18 196.43 91.93C196.19 91.69 194.61 89.96 194.23 89.61C193.81 89.22 192.32 87.96 192.1 87.76C191.91 87.59 192.03 87.43 192.42 87.59C192.76 87.73 193.29 88.02 194.1 87.62C195.23 87.06 199.46 82.68 200.06 82.08C200.66 81.48 204.76 77.21 204.88 77.09C205.07 76.89 205.13 76.79 204.86 76.46C204.57 76.1 202.06 73.71 201.54 73.37C201.08 73.07 200.79 72.93 200.39 72.93C200.04 72.92 199.61 72.92 199.96 72.75Z" fill="#777777"/>
<path d="M59.12 103.48C58.76 103.09 57.91 102.35 57.42 101.93C57.2 101.75 57.32 101.5 57.52 101.18C57.65 100.97 60.36 96 60.97 95.06C61.79 93.79 64.23 89.71 64.54 89.18C64.86 88.62 65.07 88.25 65.33 88.48C65.71 88.84 66.39 89.64 66.57 89.9C66.79 90.2 66.66 90.05 66.34 90.05C66.01 90.05 65.61 90.69 64.86 91.86C64.12 93.03 63.53 94.24 63.42 94.48C63.27 94.81 63.48 94.9 63.67 95.03C63.99 95.24 68.46 98 69.52 98.63C70.49 99.19 76.38 102.55 77.23 102.51C78.03 102.47 78.02 102.34 78.17 102.23C78.4 102.07 78.86 102 78.63 102.25C78.36 102.55 77.35 104.04 77.03 104.65C76.65 105.33 75.78 106.94 75.67 107.19C75.56 107.42 75.55 107.02 75.57 106.68C75.59 106.27 75.84 105.9 75.23 105.39C74.15 104.5 69 101.48 68.27 101.05C67.55 100.61 62.51 97.76 62.16 97.64C61.9 97.55 61.68 97.24 61.48 97.61C61.23 98.07 59.37 101 59.21 102.02C59.13 102.48 59.1 102.65 59.19 103.06C59.27 103.5 59.28 103.67 59.12 103.48Z" fill="#777777"/>
<path d="M82.1799 73.23C81.9999 72.51 81.4899 71.83 81.2199 71.28C81.0499 70.95 81.0499 70.96 81.4799 70.61C81.6699 70.46 86.1799 67.12 87.0799 66.44C88.2999 65.5 92.4399 62.71 92.9399 62.35C93.4599 61.97 93.9899 61.78 94.1499 62.23C94.3299 62.73 94.8299 63.9 94.9099 64.2C95.0299 64.65 94.8499 64.31 94.5299 64.03C94.2799 63.81 93.8299 63.85 92.6799 64.62C91.5499 65.38 89.9099 66.46 89.6899 66.66C89.4199 66.9 89.4999 66.86 89.5999 67.06C89.8599 67.57 92.8299 71.94 93.6599 73.04C94.3499 73.94 98.4599 79.76 99.2399 80.1C99.7699 80.34 100.09 80.17 100.22 80.13C100.46 80.08 100.76 80.16 100.36 80.4C100.01 80.6 98.7099 81.47 98.2799 81.76C97.8099 82.08 96.6799 82.95 96.2799 83.3C95.7999 83.71 95.9299 83.27 96.1499 82.98C96.3399 82.74 96.5199 82.51 96.2099 81.79C95.6199 80.4 92.6299 76.11 91.8699 75.04C91.3799 74.35 87.4599 69.11 87.2099 68.78C87.0699 68.6 87.0199 68.53 86.6799 68.78C86.2999 69.05 83.2899 71.35 82.8399 71.77C82.4899 72.1 82.2999 72.18 82.2699 72.63C82.2499 72.92 82.2599 73.57 82.1799 73.23Z" fill="#777777"/>
<path d="M220.14 90.91C222.92 93.81 225.15 100.68 219.42 105.45C214.55 109.51 208.33 107.84 205.75 104.97C203.35 102.32 200.9 96.11 206.16 90.97C211.27 85.97 217.5 88.15 220.14 90.91ZM208.51 93.29C204.36 97.33 204.86 101.9 206.99 104.06C209.09 106.19 213.68 106.56 217.68 102.71C221.75 98.81 221.36 93.65 218.8 91.4C216.92 89.75 212.71 89.22 208.51 93.29Z" fill="#777777"/>
<path d="M225.74 184.69C224.45 188.82 218.93 193.29 212.3 190.33C206.86 187.9 205.59 181.84 206.88 178.16C208.07 174.78 212.99 169.81 219.38 172.28C225.65 174.73 227.04 180.49 225.74 184.69ZM218.43 175.18C212.76 173.15 209.15 175.84 208.23 178.54C207.36 181.13 208.37 185 214.1 187.16C219.65 189.23 223.82 187.18 224.77 183.43C225.12 182.04 225.2 177.61 218.43 175.18Z" fill="#777777"/>
<path d="M218.53 127.72C218.04 127.73 216.52 127.55 216.02 127.45C215.45 127.33 215.37 127.32 215.19 127.08C215.04 126.88 212.62 124 212.62 119.58C212.62 114.74 214.92 110.77 219.53 109.41C223.53 108.23 227.71 109.91 230.11 112.99C232.04 115.45 232.27 118.61 232.33 119.61C232.42 121.01 232.54 121.85 232.61 122.3C232.73 123.06 232.72 123.27 232.89 123.47C233.05 123.67 232.82 123.86 232.53 123.9C232.19 123.94 231.14 124.08 230.58 124.22C230.16 124.32 229.31 124.56 229.19 124.59C228.58 124.73 228.61 124.57 229.08 124.22C229.43 123.97 230.77 123.3 231 121.58C231.19 120.05 231.44 116.7 229.02 114.23C227.23 112.4 224.22 110.94 219.91 112.71C216.49 114.11 214.21 117.17 214.19 120.77C214.16 124.4 216.29 126.56 218.36 127.29C219.01 127.51 219.37 127.7 218.53 127.72Z" fill="#777777"/>
<path d="M234.25 130.06C234.24 130.8 234.59 134.11 234.73 134.77C234.9 135.55 234.55 135.19 234.5 134.91C234.45 134.67 234.16 134.19 233.57 134.13C232.66 134.04 228.72 134.32 225.47 134.73C226.94 136.3 231.84 139.82 232.5 140.28C233.3 140.85 234.09 141.35 234.34 141.34C234.51 141.33 234.43 141.47 234.5 141.25C234.6 140.94 234.93 139.96 234.87 141.46C234.86 141.82 234.84 142.9 234.87 143.17C234.91 143.45 235 144.2 235.02 144.36C235.13 145.17 235 145.01 234.4 144.27C233.51 143.18 231.59 141.83 230.9 141.33C230.24 140.85 226.02 137.66 226.02 137.66C226.02 137.66 219.97 143.41 218.83 144.66C218.43 145.1 216.9 146.69 216.47 147.64C216.27 148.08 216.12 148.29 216.19 147.88C216.24 147.61 216.43 145.96 216.47 145.24C216.51 144.61 216.58 142.64 216.58 142.45C216.6 142.06 216.76 142.35 216.97 142.41C217.28 142.49 218.99 140.89 220.86 139.05C222.28 137.65 224.65 135.09 224.82 134.84C224.31 134.78 219.82 135.34 218.94 135.54C218.05 135.74 217.12 135.98 216.84 136.29C216.56 136.61 216.46 136.81 216.44 137.06C216.41 137.3 216.17 137.42 216.13 137.1C216.09 136.78 216.02 135.05 215.98 134.45C215.94 133.81 215.73 132.41 215.69 132.2C215.65 132.01 215.85 131.84 215.97 132.12C216.09 132.4 216.17 132.54 216.53 132.68C217.21 132.95 218.11 132.96 224.79 132.17C231.47 131.4 231.98 131.22 232.66 131.04C233.37 130.85 233.8 130.59 233.89 129.99C233.97 129.65 234.27 128.97 234.25 130.06Z" fill="#777777"/>
<path d="M234.38 152.99C234.25 153.59 233.71 156.89 233.71 157.55C233.71 158.22 233.4 158.22 233.32 157.77C233.21 157.13 232.97 157.05 232.69 156.88C232.41 156.71 231.6 156.42 229.37 156.07C227.06 155.7 225.55 155.44 225.55 155.44C225.55 155.44 224.83 158.49 224.43 160.34C223.93 162.66 223.37 165.72 223.37 165.72C223.37 165.72 226.62 166.64 227.82 166.98C229.01 167.31 230.84 168.07 231.43 167.08C231.84 166.39 232.1 166.54 231.71 167.28C231.57 167.54 230.76 170.71 230.63 171.34C230.39 172.51 230.23 171.77 230.28 171.5C230.33 171.25 230.56 170.74 229.52 170.33C228.49 169.91 225 168.75 221.93 167.87C218.86 167 215.35 165.87 213.96 165.99C213.27 166.05 213.08 166.21 212.91 166.44C212.68 166.77 212.26 166.87 212.59 166.33C212.9 165.82 213.69 162.99 213.82 162.11C214.02 160.74 214.24 161.7 214.21 161.96C214.17 162.28 214.27 162.68 214.85 163.01C216.35 163.85 221.91 165.31 221.91 165.31C221.91 165.31 222.62 162.5 223.09 160.34C223.65 157.79 224.03 155.26 224.03 155.26C224.03 155.26 222.62 155.03 221.62 154.86C220.62 154.69 216.91 154.15 216.42 154.3C215.95 154.44 215.69 154.8 215.62 155.01C215.55 155.24 215.09 155.69 215.34 154.85C215.52 154.25 215.88 151.98 215.95 150.67C216.01 149.49 216.32 150.01 216.33 150.34C216.34 150.6 216.61 151.04 216.87 151.15C218.11 151.69 220.31 152 224.82 152.67C229.33 153.33 232.73 153.81 233.34 153.59C233.99 153.37 233.95 153.13 234.07 152.85C234.2 152.55 234.56 152.14 234.38 152.99Z" fill="#777777"/>
<path d="M216.04 199.37C215.53 199.72 213.55 202.13 212.95 202.96C212.47 203.61 212.54 203.09 212.66 202.83C212.89 202.36 212.75 202.21 212.57 201.8C212.27 201.12 209.95 199.24 206.97 196.74C204.03 194.29 201.35 192.01 200.55 191.97C200.15 191.95 199.8 191.92 198.98 192.67C197.74 193.81 196.27 195.63 195.94 196.21C195.46 197.05 195.56 197.85 195.56 198.12C195.57 198.57 195.43 198.51 195.27 198.12C195.1 197.68 194.67 195.93 194.65 195.62C194.63 195.38 194.65 195.25 194.92 194.96C195.38 194.46 199.3 190.02 199.87 189.39C200.49 188.69 201.44 187.58 201.69 187.15C202.06 186.51 202.18 186.97 202.07 187.29C201.95 187.62 201.69 187.99 201.89 188.59C202.28 189.75 205.97 192.48 208.1 194.19C212.27 197.55 214.31 199.32 214.99 199.32C215.52 199.33 215.66 199.23 215.91 199.03C216.09 198.88 216.57 198.99 216.04 199.37Z" fill="#777777"/>
<path d="M192.07 199.17C192.27 199.68 194.26 203.1 196.35 206.59C198.5 210.19 200.83 213.95 201.15 214.51C201.78 215.61 201.8 215.88 200.71 215.34C199.13 214.55 192.77 211.35 191.75 210.86C190.67 210.34 185.5 207.72 185.5 207.72C185.5 207.72 186.62 216.19 186.71 216.67C186.79 217.15 187.72 224.21 187.76 224.56C187.81 224.92 187.81 225.48 187.17 224.87C186.53 224.27 176.51 211.48 176 210.9C175.52 210.35 175.03 210.1 174.53 210.04C174.13 209.99 173.94 210.01 173.74 210.08C173.49 210.17 173.29 209.94 173.66 209.8C174.11 209.63 177.68 207.78 178.04 207.57C178.27 207.44 178.56 207.62 178.23 207.82C177.78 208.1 177.72 208.29 177.81 208.7C178.03 209.67 185.29 218.68 185.29 218.68C185.29 218.68 184.05 210.59 183.85 209.56C183.65 208.51 182.93 203.75 182.93 203.75C182.93 203.75 182.93 203.45 183.24 203.61C183.56 203.78 190.64 207.4 191.39 207.76C192.1 208.12 196.69 210.37 196.69 210.37C196.69 210.37 192.7 203.91 191.06 201.32C190.65 200.67 190.21 200.37 189.98 200.32C189.42 200.21 189.24 200.44 188.92 200.58C188.76 200.65 188.49 200.45 188.99 200.15C189.59 199.8 190.25 199.28 190.65 198.96C191.05 198.64 192.08 197.66 192.24 197.5C192.44 197.3 192.66 197.54 192.48 197.71C192.08 198.08 191.76 198.42 192.07 199.17Z" fill="#777777"/>
<path d="M148.28 223.79C148.24 224.13 148.34 228.05 148.39 228.54C148.41 228.77 148.21 228.7 148.08 228.2C148.04 228.05 147.77 227.51 147.25 227.41C145.73 227.1 142.86 227.33 142.86 227.33C142.86 227.33 142.77 231.87 143.25 232.39C143.7 232.88 143.77 232.82 143.97 232.87C144.17 232.91 144.66 233.16 144.34 233.14C143.73 233.08 140.31 233.08 139.54 233.16C138.98 233.22 139.27 232.96 139.74 232.85C140.22 232.74 140.45 232.48 140.63 231.89C140.84 231.2 140.74 227.31 140.74 227.31C140.74 227.31 136.57 227.27 136.05 227.56C135.62 227.78 135.53 228.18 135.49 228.5C135.45 228.82 135.11 229.11 135.15 228.67C135.23 227.89 135.28 225.07 135.19 224.44C135.11 223.88 135.24 223.96 135.43 224.29C135.66 224.7 135.58 224.93 136.07 225.13C136.65 225.36 140.75 225.29 140.75 225.29C140.75 225.29 140.78 221.44 140.67 220.85C140.56 220.28 140.16 219.92 139.68 219.87C139.4 219.84 139.16 219.6 139.52 219.63C140.73 219.76 143.15 219.71 144.1 219.62C144.6 219.57 144.3 219.84 143.93 219.93C143.52 220.04 143.12 220.26 142.96 220.87C142.8 221.46 142.83 225.25 142.83 225.25C142.83 225.25 146.42 225.3 147.07 225.16C147.62 225.04 147.91 224.71 148.03 224.2C148.07 223.85 148.32 223.46 148.28 223.79Z" fill="#777777"/>
<path d="M115.75 232.99C115.05 232.56 111.82 231.34 110.55 231.13C109.98 231.04 110.51 230.89 110.87 230.91C111.34 230.95 111.74 231.02 112.08 230.65C112.97 229.69 116.49 220.82 116.95 218.73C117.43 216.56 117.5 213.76 113.57 212.36C109.48 210.9 107.85 213.13 105.63 217.31C104.01 220.36 101.43 225.79 101.43 226.4C101.43 226.87 101.58 227.04 101.84 227.25C102.2 227.55 102.41 228.03 102.06 227.75C101.16 227.03 98.14 225.75 97.55 225.57C97.2 225.46 97.48 225.26 97.92 225.35C98.29 225.43 98.45 225.34 98.81 225.09C99.69 224.48 104.15 215.54 104.74 214.57C105.83 212.77 107.53 211.09 109.89 210.66C112.45 210.21 116.5 211.53 118.58 214.45C120.3 216.88 119.71 219.47 119.39 220.85C119 222.54 115.32 230.76 115.31 231.86C115.31 232.31 115.5 232.43 115.74 232.63C115.98 232.86 116.11 233.21 115.75 232.99Z" fill="#777777"/>
<path d="M89.99 222.03C89.99 222.03 89.22 213.71 88.99 210.84C88.72 207.49 87.88 201.02 87.88 201.02C87.88 201.02 81.34 208.09 80.5 208.94C79.65 209.8 78.87 210.64 78.87 211.23C78.87 211.82 79.14 211.94 79.24 212.14C79.32 212.31 79.47 212.87 79.3 212.67C78.97 212.27 78.25 211.53 77.51 210.85C76.87 210.27 76.22 209.74 75.78 209.45C75.34 209.15 75.89 209.2 76.13 209.36C76.37 209.53 76.54 209.61 77.03 209.56C77.65 209.48 82.35 204.32 84.09 202.5C85.84 200.68 89.76 196.36 90.16 195.81C90.45 195.41 90.45 195.59 90.48 196.02C90.52 196.55 91.2 205.1 91.35 206.09C91.49 207.01 91.93 212.83 91.98 213.48C92.04 214.13 92.23 216.31 92.23 216.31C92.23 216.31 95.23 211.99 96.23 210.44C97.23 208.89 99.32 206.11 99.31 205.37C99.3 204.59 98.89 204.35 98.64 204.11C98.5 203.97 98.4 203.62 98.71 203.89C99.4 204.51 101.54 206.05 102.85 206.65C103.48 206.94 102.54 206.77 102.37 206.69C102.27 206.65 101.67 206.52 101.16 206.7C100.49 206.94 96.71 212.72 95.96 213.83C95.18 214.97 92.91 218.15 92.39 219.01C91.86 219.87 90.64 221.66 90.4 222.11C90.17 222.54 90.05 222.5 89.99 222.03Z" fill="#777777"/>
<path d="M81.5699 187.21C81.7899 187.63 82.3999 188.55 83.0899 189.43C83.7799 190.29 84.5199 191.05 84.9699 191.47C85.3199 191.81 84.8299 191.68 84.4999 191.44C84.1099 191.15 83.7899 191.08 82.7599 191.65C81.5499 192.3 70.8199 201.33 70.4099 201.85C69.9099 202.47 69.9499 202.77 70.1599 203.24C70.3199 203.6 70.2099 203.92 70.0699 203.69C69.6499 203.02 67.6199 200.21 66.8899 199.67C66.4199 199.32 66.9099 199.41 67.2199 199.58C67.5499 199.77 67.6399 199.75 67.9999 199.6C69.1999 199.09 81.3199 189.3 81.5099 188.61C81.7099 187.88 81.4399 187.77 81.4099 187.56C81.3799 187.27 81.3399 186.78 81.5699 187.21Z" fill="#777777"/>
<path d="M72.28 114.3C71.82 115.02 70.43 118.53 70.2 119.54C70.09 120.01 69.87 119.51 69.93 119.17C70.05 118.58 70.14 118.27 69.15 117.61C67.88 116.77 55.21 111.93 53.94 111.93C53.29 111.93 53.14 112.2 52.9 112.49C52.69 112.75 52.26 112.87 52.53 112.48C52.84 112.04 54.52 107.86 54.61 107.27C54.7 106.7 54.92 107.28 54.86 107.6C54.77 108.08 54.8 108.43 55.1 108.68C56.31 109.71 70 114.97 71.01 114.8C71.7 114.69 71.63 114.45 71.87 114.23C72.14 114 72.61 113.8 72.28 114.3Z" fill="#777777"/>
<path d="M67.52 184.27L71.58 178.85C71.58 178.85 64.47 179.23 62.95 179.36C61.43 179.49 57 179.68 56.5 180.4C56.17 180.88 56.48 181.41 56.51 181.57C56.57 181.9 56.49 182.41 56.35 182.02C56.26 181.77 55.71 180.33 55.27 179.33C54.88 178.43 54.36 177.34 54.22 177.13C54 176.8 54.37 176.88 54.59 177.12C54.82 177.37 54.95 177.53 55.55 177.69C56.55 177.95 63.16 177.61 64.45 177.57C65.73 177.52 75.13 176.9 75.92 176.98C76.34 177.02 76.71 176.82 76.21 177.6C75.93 178.04 70.31 185.39 69.88 185.98C69.44 186.59 64.22 193.34 64.12 194.18C64.04 194.9 64.14 195.08 64.18 195.27C64.24 195.56 64.2 196.34 64.09 196.08C63.61 194.92 61.57 191.82 60.93 190.98C60.53 190.46 61.06 190.81 61.38 190.93C61.71 191.04 61.9 190.97 62.25 190.73C63.27 190.06 66.96 185.04 67.52 184.27Z" fill="#777777"/>
<path d="M68.11 157.54C68.38 158.31 69.21 161.68 69.62 163.15C69.77 163.67 70.7 167.1 70.98 167.68C71.11 167.96 70.5 167.52 70.38 167.22C70.3 167.03 70.33 166.9 70.02 166.67C69.85 166.54 69.61 166.51 69.39 166.49C68.54 166.38 63.62 168.01 61.17 168.76C58.65 169.53 53.84 170.98 53.34 171.56C52.84 172.15 53 172.41 53.04 172.71C53.08 172.97 52.88 173.92 52.77 173.33C52.67 172.77 52.56 171.77 52.11 170.18C51.71 168.77 50.09 162.95 49.99 162.69C49.86 162.37 49.84 162.25 50.08 162.15C50.31 162.07 51.84 161.54 52.25 161.3C52.76 160.99 52.56 161.44 52.28 161.73C52.01 162.02 51.86 162.17 51.91 163.08C51.98 164.15 53.27 168.15 53.27 168.15C53.27 168.15 55.67 167.51 56.46 167.24C57.23 166.96 59.86 166.19 59.86 166.19C59.86 166.19 58.72 161.87 58.32 161.35C57.94 160.85 57.69 160.95 57.3 160.98C57.01 161 56.53 160.79 56.89 160.72C57.7 160.56 59.92 159.96 61 159.44C61.46 159.22 61 159.79 60.79 159.91C60.57 160.04 60.24 160.24 60.21 160.97C60.19 161.58 60.61 163.04 60.8 163.55C60.97 164.04 61.46 165.72 61.46 165.72C61.46 165.72 65.81 164.47 66.53 164.12C67.22 163.78 67.82 163.77 67.66 162.33C67.52 161.12 66.74 158.3 66.12 157.39C65.65 156.7 65.26 156.44 65.1 156.32C64.94 156.19 64.37 155.71 64.71 155.82C65.22 155.98 67.39 156.74 67.65 156.94C67.88 157.12 67.99 157.2 68.11 157.54Z" fill="#777777"/>
<path d="M89.4499 89.13C88.9299 89.68 85.11 93.81 84.05 95.02C83.69 95.43 82.8399 96.4 82.5899 96.7C82.3899 96.93 82.31 96.48 82.47 96.2C82.63 95.92 82.7999 95.8 82.5899 95.14C82.3199 94.26 77.87 90.63 75.94 88.95C73.86 87.15 70.5099 84.09 69.7399 83.98C69.0499 83.89 68.88 84.01 68.55 84.18C68.31 84.3 67.7099 84.55 68.1299 84.14C68.5399 83.74 69.1699 83.04 70.0899 82.05C71.0899 80.98 75.16 76.74 75.33 76.52C75.54 76.24 75.65 76.24 75.83 76.42C76.04 76.64 77.0599 77.7 77.4599 77.95C78.0699 78.32 77.5199 78.28 77.1999 78.2C76.9199 78.14 76.7599 78.03 76.0899 78.42C75.0299 79.04 72.5399 82.02 72.5399 82.02L77.41 86.52C77.41 86.52 80.8 83.36 80.86 82.71C80.91 82.15 80.83 82.01 80.79 81.88C80.7 81.62 80.7399 81.17 80.9499 81.48C81.5799 82.37 83.2 83.81 83.62 84.11C84.05 84.41 83.5499 84.42 83.3199 84.31C82.9599 84.15 82.83 83.9 82.16 84.22C81.5 84.55 78.7799 87.74 78.7799 87.74C78.7799 87.74 82.25 90.72 82.9 91.2C83.75 91.82 84.3599 91.97 85.2099 91.19C86.1099 90.37 88.0499 88.48 88.4999 87.47C88.8499 86.7 88.71 86.16 88.73 85.97C88.75 85.67 88.9299 85.29 88.9899 85.54C89.0499 85.79 89.76 88.01 89.8 88.35C89.84 88.65 89.7699 88.8 89.4499 89.13Z" fill="#777777"/>
<path d="M66.7599 148.23C66.7899 148.64 66.8999 150.59 67.0299 151.46C67.0999 151.95 66.7999 151.34 66.7299 151.09C66.6599 150.85 66.6199 150.59 66.2099 150.39C65.5299 150.03 60.7999 150.43 58.0399 150.73C55.5199 151.01 49.6899 151.3 48.9999 151.94C48.4999 152.4 48.5899 152.95 48.5699 153.15C48.5599 153.42 48.0999 154.29 48.1099 153.63C48.1199 153.23 48.0999 151.48 48.0099 150.87C47.9099 150.21 47.4499 146 47.6999 144.55C47.9899 142.89 49.6299 140.58 52.4499 140.46C55.4199 140.33 56.8599 142.82 57.1599 143.42C57.4299 143.07 57.5899 142.88 58.3799 142.28C59.3399 141.55 65.6499 137.83 66.1299 136.7C66.4399 135.97 66.2899 135.61 66.2799 135.45C66.2199 134.71 66.3799 134.19 66.7399 135.45C66.9499 136.2 67.0999 138.31 66.1999 139.57C65.0799 141.14 61.5099 143.26 60.8099 143.74C59.9799 144.3 58.0799 145.35 58.0799 146.5C58.0899 147.51 58.2299 148.12 58.2299 148.12C58.2299 148.12 61.0299 147.84 61.7899 147.75C62.5499 147.66 65.5099 147.48 65.9099 147.04C66.3099 146.59 66.2199 146.44 66.2599 146.21C66.2899 146 66.7399 145.06 66.7099 146.28C66.7099 146.72 66.7199 147.82 66.7599 148.23ZM55.3399 143.65C52.7099 142.11 50.2299 143.47 49.3799 144.84C48.5599 146.21 48.9999 148.78 48.9999 148.78C48.9999 148.78 52.3799 148.55 53.0299 148.51C53.6699 148.47 57.1699 148.22 57.1699 148.22C57.1699 148.22 57.5399 144.94 55.3399 143.65Z" fill="#777777"/>
<path d="M136.64 86.36C133.37 82.47 132.85 78.21 132.85 75.97C132.85 73.08 134.16 71.25 135.43 69.47L136.37 68.31C137.94 66.47 140.08 63.96 140.08 59.57C140.08 55.75 139.64 54.11 139.4 53.48C139.26 55.37 138.17 63.19 130.04 70.24C127.71 72.26 123.82 75.64 123.82 79.85C123.82 86.03 127.82 91.14 129.06 92.58C127.99 89.86 127.65 87.2 127.65 85.03C127.65 81.98 128.27 79.86 128.28 79.82L128.35 79.58L128.47 79.79C131.29 84.56 135.49 86.04 136.64 86.36Z" fill="#777777"/>
<path d="M137.85 68.27C139.87 67.49 147.22 64.28 147.22 59.13C147.22 55.11 144.27 51.51 143.27 50.4C143.55 51.3 144.09 53.37 144.09 55.87C144.08 61.87 139.29 66.91 137.85 68.27Z" fill="#777777"/>
<path d="M165.37 58.41C163.4 61.28 156.16 64.13 155.83 64.26L155.71 64.08C159.82 59.9 160.94 53.42 161.18 51.66C155.39 60.79 151.84 62.36 147.76 64.16L145.97 64.96C141.07 67.28 135.45 70.6 135.45 75.79C135.45 82.66 137.79 85.53 138.58 86.31C138.07 84.48 137.9 82.92 137.9 81.7C137.9 79.71 138.31 78.6 138.32 78.58L138.47 78.18L138.53 78.6C139.07 82.38 143.63 85.93 144.63 86.67C144.58 86.26 144.5 85.37 144.5 84.19C144.5 80.36 145.39 73.57 151.34 71.02C162.07 66.44 164.74 60.51 165.37 58.41Z" fill="#777777"/>
<path d="M156.47 79.67C156.47 72.59 157.83 69.87 158.55 68.92C147 74.16 145.76 83.7 145.76 87.48C145.76 87.94 145.78 88.29 145.8 88.56C146.3 87.1 148.05 82.83 152.28 79.24L152.35 79.18L152.42 79.22C152.44 79.23 152.46 79.25 152.46 79.36C152.46 79.74 152.2 81.27 150.67 87.81C151.74 87.13 156.47 83.82 156.47 79.67Z" fill="#777777"/>
<path d="M166.61 78.98C166.61 76.9 166.04 75.23 165.78 74.57C165.59 75.31 164.96 77.14 163.01 78.96L162.85 78.8C162.87 78.78 164.05 77.42 164.05 73.83C164.05 72.79 163.95 71.58 163.7 70.16C163.61 69.62 163.56 69.09 163.56 68.58C163.56 65.74 164.83 63.4 165.43 62.44C164.2 63.34 160.82 66.21 159.42 71.5C158.37 75.42 158.11 77.07 157.91 78.27C157.78 79.1 157.68 79.69 157.39 80.67C156.72 82.95 155.26 87.04 154.07 88.98C154.92 88.48 157.21 86.9 158.95 83.41L159.1 83.11L159.16 83.45C159.16 83.47 159.29 84.3 159.29 85.55C159.29 87.11 159.06 89.31 158.16 91.33C159.7 90.1 166.61 84.29 166.61 78.98Z" fill="#777777"/>
<path d="M178.87 67.48C174.99 64.6 170.76 65.93 170.72 65.95L170.37 66.06L170.6 65.77C172.57 63.29 175.09 61.77 175.9 61.31C174.67 61.13 169.82 60.69 167.42 64.14C165.87 66.37 165.61 69.74 165.61 71.72C165.61 72.27 165.63 72.69 165.65 72.97C168.02 68.85 168.29 68.86 168.38 68.87L168.48 68.91L168.5 69C168.59 69.44 168.63 69.99 168.63 70.58C168.63 72.45 168.28 74.8 168.1 75.94C172.29 67.91 177.46 67.44 178.87 67.48Z" fill="#777777"/>
<path d="M144.26 210.52L144.7 191.1C145.08 191.66 145.38 192.14 145.51 192.41C145.98 193.4 146.31 194.71 146.31 194.71C146.31 194.71 146.96 195.36 147.11 196.31C147.26 197.26 147.71 200.46 147.86 201.21C148.01 201.96 148.01 202.56 148.46 202.56C151.06 202.56 152.51 198.26 151.96 196.91C151.41 195.56 149.96 193.91 149.96 193.91C149.96 193.91 148.56 189.46 148.31 188.91C148.06 188.36 147.06 187.86 146.76 187.66C146.61 187.56 145.7 186.66 144.82 185.78L144.94 180.34C144.6 180.38 144.32 180.34 144.08 180.34C140.13 180.34 137.95 177.89 137.86 177.8L138.82 210.5L144.26 210.52ZM150.8 199.91C149.65 201.51 149.5 201.56 149.1 201.56C148.7 201.56 148.7 199.81 148.95 198.91C149.2 198.01 149.85 197.06 150.7 197.11C151.4 197.15 151.95 198.31 150.8 199.91Z" fill="#777777"/>
<path d="M187.37 136.66C188.22 136.91 191.97 137.96 193.86 137.86C198.8 137.6 202.5 133.81 203.6 132.91C204.7 132.01 207.8 130.41 207.8 130.41C207.8 130.41 205.1 130.36 201.71 130.06C198.31 129.76 194.91 130.31 192.37 131.16C189.82 132.01 188.32 133.66 187.82 134.06C187.32 134.46 186.92 135.06 185.92 135.31C184.92 135.56 184.07 135.76 184.07 135.76C184.57 134.41 185.02 133.76 185.42 133.46C185.82 133.16 188.02 131.71 190.27 129.31C192.52 126.91 195.91 121.07 196.16 120.12C196.41 119.17 198.46 114.58 198.46 114.58C198.46 114.58 195.96 116.38 193.22 117.83C190.47 119.28 187.42 121.93 186.08 124.27C184.73 126.62 184.23 129.47 184.18 131.77C184.13 134.07 183.23 136.02 181.28 138.36C179.78 140.16 176.68 142.71 176.08 143.21C175.92 143.35 174.54 144.36 173.03 144.76C172.08 145.01 170.93 144.86 170.93 144.86C170.93 144.86 171.98 143.51 172.63 143.31C173.28 143.11 174.83 142.61 177.33 140.36C179.83 138.11 181.33 132.42 181.53 131.47C181.73 130.52 182.63 127.62 182.63 127.62C182.63 127.62 180.68 129.52 178.38 130.97C176.08 132.42 173.38 135.07 171.73 137.81C170.08 140.56 170.88 142.76 170.88 143.16C170.88 143.56 170.73 143.81 170.08 144.46C169.43 145.11 168.43 145.26 167.88 145.41C167.33 145.56 165.03 146.46 162.68 146.46C160.33 146.46 157.23 145.36 156.54 145.31C155.84 145.26 154.74 145.91 154.29 145.96C153.84 146.01 153.49 145.81 153.04 145.81C152.59 145.81 151.19 145.86 151.19 145.86C151.54 145.16 151.59 143.91 151.64 143.56C151.69 143.21 151.79 142.71 152.29 142.61C152.79 142.51 154.24 141.56 154.74 141.31C155.24 141.06 155.64 141.01 156.19 141.01C156.59 141.01 159.39 140.91 161.69 139.51C165.78 137.02 168.04 133.16 168.68 132.21C169.33 131.26 172.58 128.86 172.58 128.86C172.58 128.86 170.03 129.56 167.13 130.41C164.23 131.26 159.99 133.26 158.49 134.61C156.99 135.96 156.19 137.26 155.64 138.16C155.09 139.06 154.59 140.31 154.14 140.66C153.69 141.01 152.24 141.76 152.24 141.56C152.24 141.36 152.79 140.31 153.14 139.71C153.49 139.11 154.59 137.36 155.29 136.31C155.99 135.26 156.39 134.16 156.59 133.61C156.79 133.06 157.29 131.71 157.89 131.01C160.08 128.46 161.59 128.46 162.79 128.36C163.99 128.26 165.19 128.51 168.98 128.06C172.78 127.61 175.67 125.51 176.47 125.06C177.27 124.61 180.82 122.01 180.82 122.01C180.82 122.01 177.37 122.61 176.28 122.76C175.18 122.91 170.93 122.96 168.49 123.56C166.04 124.16 163.89 125.66 161.84 127.01C159.79 128.36 157.59 130.26 157.59 130.26C157.59 130.26 157.59 128.96 157.74 128.36C157.89 127.76 158.09 126.91 159.09 126.36C160.09 125.81 162.94 124.11 164.78 122.26C166.63 120.41 168.98 116.51 169.28 115.62C169.58 114.72 171.38 111.12 171.38 111.12C171.38 111.12 170.53 112.02 167.38 113.62C164.23 115.22 161.38 117.42 159.69 119.62C157.99 121.82 157.74 123.77 157.69 124.61C157.64 125.46 157.49 126.56 157.29 127.01C157.09 127.46 156.86 127.72 156.69 129.56C156.54 131.21 156.34 131.56 156.04 132.41C155.74 133.26 155.74 133.61 155.39 134.21C155.04 134.81 155.09 134.51 154.74 135.36C154.39 136.21 152.39 138.71 152.39 138.71C152.39 138.71 151.74 137.91 152.74 135.76C154.19 132.64 154.74 130.11 154.79 128.47C154.84 126.82 154.09 123.57 153.64 122.37C153.19 121.17 151.69 116.93 151.69 116.93C151.69 116.93 151.54 118.88 150.84 120.88C150.14 122.88 148.54 126.92 148.54 129.72C148.54 132.52 149.99 135.77 150.69 136.66C151.39 137.56 151.54 138.31 151.44 139.41C151.34 140.51 150.95 140.91 150.39 141.81C150.04 142.36 150.05 142.62 149.69 144.16C148.99 147.16 147.49 148.06 146.19 149.1C146.04 149.22 145.84 149.36 145.62 149.51L146.32 122.1C146.63 117.96 147.04 109.61 150.83 104.12C151.31 103.43 151.56 103.09 151.56 103.09C154.03 99.65 157.75 98.02 160.96 97.7V95.46C160.96 95.46 143.74 95.43 140.39 95.43H140.33C137 95.43 121.49 95.46 121.49 95.46V97.7C124.69 98.02 128.42 99.65 130.89 103.09C133.83 107.19 135.65 109.6 136.18 122.58L137.14 153.91C134.92 155.15 134.55 157.84 134.55 157.84C134.15 157.14 134 156.29 134.3 155.79C134.6 155.29 135.65 152.49 135.15 149.8C134.65 147.1 131.65 142.61 130.7 141.51C129.75 140.41 128 137.71 128 137.71C128 137.71 128.05 140.21 127.9 142.21C127.75 144.21 127.05 147.01 128.25 150.5C129.45 154 132 155.7 132.45 156.05C132.9 156.4 133.4 157 133.6 158.05C133.8 159.1 133.65 159.35 133.5 160.1C133.35 160.85 133.55 161.25 133.25 162.3C133.04 163.03 132.45 163.45 132.35 164.1C132.12 165.58 131.75 166.6 131.6 167.15C131.45 167.7 131.1 167.8 130.65 168.55C130.2 169.3 130.3 169.8 130.3 169.8C130.3 169.8 128 167.85 127.7 167.15C125.8 162.73 122.75 161.75 120.8 161.3C118.85 160.85 115.8 161 114.31 161.15C112.86 161.29 109.12 160.55 108.89 160.5C109.1 160.54 110.76 160.95 112.86 163.24C115.11 165.69 117.76 167.44 119.81 168.24C121.86 169.04 124.31 168.39 125.06 168.19C125.81 167.99 126.36 167.69 127.01 167.94C127.66 168.19 128.41 169.19 128.41 169.19C128.41 169.19 127.26 169.84 126.41 170.24C123.38 171.66 121.05 172.82 119.27 175.78C118.51 177.05 117.47 181.53 117.32 182.57C117.17 183.62 116.27 186.42 116.27 186.42C116.27 186.42 117.97 184.97 119.37 184.02C120.77 183.07 122.82 181.92 125.07 179.07C127.32 176.22 127.62 171.83 127.72 170.93C127.82 170.03 128.47 169.78 128.72 169.78C128.97 169.78 129.82 170.38 129.77 171.13C129.72 171.88 130.12 172.68 130.42 173.13C130.72 173.58 131.42 174.18 132.02 175.03C132.62 175.88 133.07 177.78 133.47 178.58C133.87 179.38 134.07 179.28 134.67 180.38C135.27 181.48 135.17 182.08 135.67 182.93C136.17 183.78 136.42 183.68 136.42 183.68L136.12 178.38C136.12 178.38 135.92 178.28 135.72 178.03C135.52 177.78 135.22 177.13 135.22 177.13C135.22 177.13 136.12 176.53 136.72 176.23C137.32 175.93 137.67 176.08 138.07 176.33C138.47 176.58 141.32 178.88 144.42 178.88C147.52 178.88 153.86 175.48 155.01 174.88C156.16 174.28 159.16 173.43 159.16 173.43C159.16 173.43 156.16 173.13 154.56 172.78C152.96 172.43 148.32 171.53 147.22 171.53C146.12 171.53 145.17 171.78 145.17 171.78L145.3 170.17C145.3 170.17 143.98 171.29 143.53 171.64C143.08 171.99 141.94 172.62 140.23 173.28C139 173.75 137.83 173.98 137.83 173.98C137.83 173.98 137.63 173.78 137.48 174.53C137.33 175.28 137.23 175.18 136.38 175.38C135.53 175.58 134.78 175.93 134.78 175.93C134.78 175.93 135.48 174.13 135.58 173.83C135.68 173.53 135.83 173.23 136.88 173.03C137.93 172.83 140.98 172.13 144.02 169.38C147.07 166.63 148.63 163.12 149.17 161.94C150.04 160.02 152.72 157.54 152.72 157.54C152.72 157.54 150.42 158.44 146.08 159.94C145.87 160.01 145.68 160.09 145.47 160.16L145.63 154.42H145.62L145.63 154.01C145.51 154.06 145.41 154.11 145.33 154.15C144.68 154.45 142.78 155 142.03 155.35C141.28 155.7 140.68 156.5 140.08 156.8C139.72 156.98 138.42 157.39 137.26 158.54L137.31 159.48L137.5 165.59C135.84 167.77 135.73 169.5 135.54 170.64C135.34 171.79 135.19 172.34 135.04 172.94C134.89 173.54 134.29 174.94 134.29 174.94C134.29 174.94 133.44 173.29 132.59 172.39C131.74 171.49 132.04 170.74 132.14 170.04C132.24 169.34 132.64 168.59 133.09 167.44C133.54 166.29 134.14 164.09 134.49 163.39C134.84 162.69 134.69 164.04 135.44 159.94C136.19 155.84 139.49 154.9 140.09 154.6C140.69 154.3 141.29 153.5 142.04 153.15C142.79 152.8 144.69 152.25 145.34 151.95C145.99 151.65 148.11 150.76 149.09 149.45C150.07 148.14 150.64 147.75 151.29 147.4C151.94 147.05 152.99 147 154.64 146.9C156.29 146.8 156.64 148.1 156.99 148.55C157.34 149 157.34 149.45 157.39 150.05C157.44 150.65 156.99 153.75 160.34 156.65C163.69 159.55 167.78 159.8 169.28 160.2C170.78 160.6 174.53 162.15 174.53 162.15C174.53 162.15 173.88 161.9 171.33 157.95C168.78 154 166.33 151.65 164.8 150.77C163.26 149.88 160.44 149.26 159.79 149.11C159.14 148.96 158.54 148.76 158.14 148.41C157.74 148.06 156.89 146.81 156.89 146.81C156.89 146.81 157.24 146.76 157.54 146.81C157.84 146.86 159.19 147.76 162.54 147.76C165.89 147.76 167.69 146.61 168.33 146.36C168.98 146.11 169.63 146.16 170.28 146.56C170.93 146.96 171.73 147.51 173.33 148.51C174.93 149.51 177.83 151.06 180.77 151.06C183.72 151.06 188.81 149.66 190.16 149.01C191.51 148.36 194.06 147.81 194.06 147.81C194.06 147.81 191.56 147.36 190.16 147.06C188.76 146.76 184.21 145.06 181.02 145.06C177.82 145.06 175.53 146.56 175.23 146.76C174.93 146.96 174.53 147.56 173.18 147.16C171.83 146.76 171.63 145.81 171.63 145.81C175.43 145.26 175.78 144.66 177.28 143.71C178.78 142.76 180.03 140.96 180.98 140.06C181.62 139.45 182.15 138.68 183.53 137.41C185.37 135.66 187.37 136.66 187.37 136.66ZM194.65 131.47C198.41 130.58 205.29 130.9 204.46 131.1C203.62 131.31 198.67 133.45 195.17 134.39C191.67 135.33 187.61 135.59 187.61 135.59L187.56 135.49C187.55 135.49 190.89 132.36 194.65 131.47ZM187.14 124.32C189.64 120.09 195.54 117.74 195.54 117.74C195.54 117.74 191.26 123.43 189.9 125.25C188.54 127.08 185.05 132.24 185.05 132.24C185.05 132.24 184.63 128.55 187.14 124.32ZM173.15 137.11C175.6 133.09 180.4 130.69 180.4 130.69C180.4 130.69 177.43 135.7 175.75 137.99C174.08 140.29 171.68 143.1 171.68 143.1C171.68 143.1 170.7 141.12 173.15 137.11ZM160.06 134.6C162.26 133.1 168.93 130.63 168.93 130.63C168.93 130.63 163.82 135.17 161.26 137C158.7 138.83 155.62 140.29 155.62 140.29C155.62 140.29 156.61 136.95 160.06 134.6ZM168.35 124.43C170.54 123.7 177.32 123.44 177.32 123.44C177.32 123.44 171.42 125.53 169.03 126.31C166.63 127.09 162.4 127.72 162.4 127.72C162.4 127.72 165.11 125.51 168.35 124.43ZM160.47 120.04C162.35 117.12 169.18 113.57 169.18 113.57C169.18 113.57 165.37 117.38 162.71 120.51C160.05 123.64 158.27 125.78 158.27 125.78L158.22 125.88C158.23 125.89 158.6 122.97 160.47 120.04ZM151.4 136.11C151.4 136.11 149.52 133.55 149.47 129.38C149.42 125.21 151.87 120.72 151.87 120.72C151.87 120.72 151.77 125.63 151.92 128.39C152.07 131.16 151.4 136.11 151.4 136.11ZM119.15 165.02C116.75 164.19 113.25 161.84 113.25 161.84C113.25 161.84 119.62 161.11 121.96 162.26C126.02 164.25 126.6 167.27 126.6 167.27C126.6 167.27 121.55 165.86 119.15 165.02ZM118.11 183.8C118.11 183.8 118.92 177.45 120.7 175.24C123.29 172.02 126.08 171.51 126.08 171.51L118.11 183.8ZM146.4 172.6C148.68 172.37 154.97 173.78 154.97 173.78C154.97 173.78 148.37 175.35 144.99 175.59C141.61 175.82 138.66 175.51 138.66 175.51C138.66 175.51 140.23 173.23 146.4 172.6ZM139.91 164.29C142.26 162 149.46 159.75 149.46 159.75C149.46 159.75 143.72 164.66 141.42 166.69C139.12 168.72 136.2 172.22 136.2 172.22C136.2 172.22 135.74 168.36 139.91 164.29ZM133.55 155.73C133.55 155.73 131.78 152.7 130.89 149.47C130.2 146.94 129.17 140.81 129.17 140.81C129.17 140.81 133.21 146.64 133.92 148.58C135.11 151.87 133.55 155.73 133.55 155.73ZM158.33 149.47C158.33 149.47 162.61 150.46 164.54 151.77C168.64 154.54 171.17 159.86 171.17 159.86C171.17 159.86 167 157.62 163.97 155.32C160.94 153.03 158.33 149.63 158.33 149.63V149.47ZM180.56 145.98C184.32 145.98 189.8 147.86 189.8 147.86C189.8 147.86 182.81 148.75 180.56 148.75C178.32 148.75 174.56 148.18 174.56 148.18C174.56 148.18 177.64 145.98 180.56 145.98Z" fill="#777777"/>
<path d="M169.77 118.23C169.77 118.23 168.41 118.79 168.41 120.83C168.41 122.87 170.22 122.3 170.22 122.3C170.22 122.3 171.8 121.96 171.8 119.93C171.81 117.89 169.77 118.23 169.77 118.23Z" fill="#777777"/>
<path d="M194.51 125.73C194.51 125.73 193.15 126.29 193.15 128.33C193.15 130.37 194.96 129.8 194.96 129.8C194.96 129.8 196.55 129.46 196.55 127.43C196.55 125.38 194.51 125.73 194.51 125.73Z" fill="#777777"/>
<path d="M152.62 149.23C152.62 149.23 151.26 149.8 151.26 151.84C151.26 153.87 153.07 153.3 153.07 153.3C153.07 153.3 154.66 152.96 154.66 150.93C154.66 148.9 152.62 149.23 152.62 149.23Z" fill="#777777"/>
<path d="M181.91 141.37C181.29 143.31 183.19 143.32 183.19 143.32C183.19 143.32 184.8 143.48 185.42 141.54C186.05 139.6 184 139.3 184 139.3C184 139.3 182.53 139.43 181.91 141.37Z" fill="#777777"/>
<path d="M169.31 149.21C169.31 149.21 167.95 149.78 167.95 151.82C167.95 153.86 169.76 153.29 169.76 153.29C169.76 153.29 171.35 152.95 171.35 150.91C171.35 148.88 169.31 149.21 169.31 149.21Z" fill="#777777"/>
<path d="M149.41 166.3C149.41 166.3 148.05 166.86 148.05 168.9C148.05 170.94 149.86 170.38 149.86 170.38C149.86 170.38 151.44 170.04 151.44 168C151.44 165.96 149.41 166.3 149.41 166.3Z" fill="#777777"/>
<path d="M118.33 173.54C118.33 173.54 119.91 173.2 119.91 171.16C119.91 169.12 117.87 169.46 117.87 169.46C117.87 169.46 116.51 170.03 116.51 172.06C116.52 174.11 118.33 173.54 118.33 173.54Z" fill="#777777"/>
<path d="M127.73 49.67C128.33 50.49 130.51 53.77 130.51 57.73C130.51 58.83 130.38 60.58 130.38 60.58C130.38 60.58 130.28 62.29 129.43 65.62C130.63 63.82 132.34 60.96 132.93 58.58L133 58.31L133.13 58.56C133.17 58.64 134.04 60.26 134.18 61.97C134.52 61.2 135.22 59.34 135.22 57.29C135.23 53.91 131.79 49.82 127.73 49.67Z" fill="#777777"/>
<path d="M128.63 62.08C128.57 61.02 128.44 59.76 128.18 58.32C127.83 59.41 126.43 62.07 120.86 67.32C117.68 70.31 115.96 72.58 115.96 75.96C115.96 82.53 121.83 87.75 123.27 88.93C122.79 87.67 121.3 83.34 121.3 78.26C121.3 76.01 122.61 74.7 123.89 73.42L124.2 73.11C125.08 72.24 126.44 70.89 127.32 69.58C127.32 69.58 127.99 68.67 128.4 67.18C128.46 66.94 128.53 66.54 128.59 65.96V65.97C128.67 65.36 128.73 63.63 128.63 62.08Z" fill="#777777"/>
<path d="M97.8299 121.24C96.8699 121.24 96.1499 122.02 96.1499 122.94C96.1499 123.34 96.3299 123.74 96.6299 124.04C96.4299 123.98 96.2299 123.94 96.0299 123.94C94.8499 123.94 93.9099 124.9 93.9099 126.06C93.9099 127.24 94.8499 128.18 96.0299 128.18C96.2299 128.18 96.4099 128.14 96.5899 128.1C96.1299 129.66 94.6699 130.66 93.0699 130.66C89.9499 130.66 88.7099 127.3 88.5899 126.5C88.8299 127.36 89.6299 128.02 90.5899 128.02C91.7499 128.02 92.6899 127.08 92.6899 125.92C92.6899 124.76 91.7499 123.82 90.5899 123.82C90.3699 123.82 90.1699 123.88 89.9699 123.94C90.4099 123.54 90.6899 123 90.6899 122.36C90.6899 121.2 89.7499 120.28 88.5899 120.28C87.4299 120.28 86.4899 121.2 86.4899 122.36C86.4899 123 86.7899 123.56 87.2299 123.96C87.0099 123.88 86.7899 123.82 86.5499 123.82C85.3899 123.82 84.4499 124.76 84.4499 125.92C84.4499 127.08 85.3899 128.02 86.5499 128.02C87.5099 128.02 88.3099 127.36 88.5499 126.5C88.4299 127.46 86.6699 130.66 84.0499 130.66C82.3099 130.66 80.9099 129.6 80.5099 128.1C80.6899 128.14 80.8699 128.18 81.0699 128.18C82.2299 128.18 83.1899 127.24 83.1899 126.06C83.1899 124.9 82.2299 123.94 81.0699 123.94C80.8499 123.94 80.6499 123.98 80.4699 124.04C80.7699 123.74 80.9499 123.34 80.9499 122.94C80.9499 122.02 80.2299 121.24 79.2499 121.24C78.4299 121.24 78.1899 121.44 78.1899 121.44C78.6299 123.18 79.1499 126.66 79.2299 127.14L80.6899 136.66H96.4099C96.4099 136.66 96.4299 136.5 96.4499 136.38L97.8699 127.14C98.1899 124.98 98.5699 122.71 98.8899 121.44C98.8899 121.44 98.6499 121.24 97.8299 121.24Z" fill="#777777"/>
<path d="M127.54 121.24C126.58 121.24 125.86 122.02 125.86 122.94C125.86 123.34 126.04 123.74 126.34 124.04C126.14 123.98 125.94 123.94 125.74 123.94C124.56 123.94 123.62 124.9 123.62 126.06C123.62 127.24 124.56 128.18 125.74 128.18C125.94 128.18 126.12 128.14 126.3 128.1C125.84 129.66 124.38 130.66 122.78 130.66C119.66 130.66 118.42 127.3 118.3 126.5C118.54 127.36 119.34 128.02 120.3 128.02C121.46 128.02 122.4 127.08 122.4 125.92C122.4 124.76 121.46 123.82 120.3 123.82C120.08 123.82 119.88 123.88 119.68 123.94C120.12 123.54 120.4 123 120.4 122.36C120.4 121.2 119.46 120.28 118.3 120.28C117.14 120.28 116.2 121.2 116.2 122.36C116.2 123 116.5 123.56 116.94 123.96C116.72 123.88 116.5 123.82 116.26 123.82C115.1 123.82 114.16 124.76 114.16 125.92C114.16 127.08 115.1 128.02 116.26 128.02C117.22 128.02 118.02 127.36 118.26 126.5C118.14 127.46 116.38 130.66 113.76 130.66C112.02 130.66 110.62 129.6 110.22 128.1C110.4 128.14 110.58 128.18 110.78 128.18C111.94 128.18 112.9 127.24 112.9 126.06C112.9 124.9 111.94 123.94 110.78 123.94C110.56 123.94 110.36 123.98 110.18 124.04C110.48 123.74 110.66 123.34 110.66 122.94C110.66 122.02 109.94 121.24 108.96 121.24C108.14 121.24 107.9 121.44 107.9 121.44C108.34 123.18 108.86 126.66 108.94 127.14L110.4 136.66H126.12C126.12 136.66 126.14 136.5 126.16 136.38L127.58 127.14C127.9 124.98 128.32 122.57 128.6 121.44C128.6 121.44 128.36 121.24 127.54 121.24Z" fill="#777777"/>
<path d="M113.86 140.26C112.8 140.26 112.01 141.12 112.01 142.14C112.01 142.58 112.21 143.02 112.54 143.35C112.32 143.28 112.1 143.24 111.88 143.24C110.58 143.24 109.54 144.3 109.54 145.58C109.54 146.88 110.58 147.92 111.88 147.92C112.1 147.92 112.3 147.88 112.5 147.83C111.99 149.55 110.38 150.65 108.62 150.65C105.18 150.65 103.81 146.94 103.68 146.06C103.94 147.01 104.83 147.74 105.89 147.74C107.17 147.74 108.21 146.7 108.21 145.42C108.21 144.14 107.17 143.1 105.89 143.1C105.65 143.1 105.43 143.17 105.21 143.23C105.7 142.79 106 142.19 106 141.49C106 140.21 104.96 139.2 103.68 139.2C102.4 139.2 101.36 140.21 101.36 141.49C101.36 142.2 101.69 142.81 102.18 143.25C101.94 143.16 101.7 143.1 101.43 143.1C100.15 143.1 99.11 144.14 99.11 145.42C99.11 146.7 100.15 147.74 101.43 147.74C102.49 147.74 103.37 147.01 103.64 146.06C103.51 147.12 101.57 150.65 98.68 150.65C96.76 150.65 95.22 149.48 94.78 147.83C94.98 147.87 95.18 147.92 95.4 147.92C96.68 147.92 97.74 146.88 97.74 145.58C97.74 144.3 96.68 143.24 95.4 143.24C95.16 143.24 94.94 143.28 94.74 143.35C95.07 143.02 95.27 142.58 95.27 142.14C95.27 141.13 94.48 140.26 93.39 140.26C92.49 140.26 92.22 140.48 92.22 140.48C92.71 142.4 93.28 146.24 93.37 146.77L94.98 157.27H112.32C112.32 157.27 112.34 157.09 112.36 156.96L113.93 146.77C114.28 144.39 114.73 141.72 115.05 140.48C115.02 140.48 114.76 140.26 113.86 140.26Z" fill="#777777"/>
<path d="M63.2799 318.79H58.1199C58.0499 325.53 57.9799 332.21 57.9799 343.49C57.9799 349.48 58.3899 352.85 60.3899 355.32C62.3199 357.73 65.8199 358.76 70.7799 358.76C75.5999 358.76 79.3099 357.59 81.5099 354.7C83.5099 352.08 83.5699 347.96 83.6399 341.42L83.7799 318.79H77.7999V314.46H94.4499V318.79H89.1499L89.0099 344.87C89.0099 350.37 88.3899 354.36 85.2299 358.22C82.4799 361.59 77.3899 363.45 70.5799 363.45C62.1899 363.45 57.5799 361.32 54.7599 357.46C52.4899 354.36 52.0799 350.99 52.0799 342.94C52.0799 335.1 52.1499 326.15 52.2199 318.79H46.6499V314.46H63.2999V318.79H63.2799Z" fill="#777777"/>
<path d="M122.22 358.28H126.76C126.76 352.78 127.04 347 127.04 341.29C127.04 337.85 126.9 330.97 118.99 330.97C113.97 330.97 108.46 334 108.46 343.63L108.32 358.28H113.48V362.61H98.0699V358.28H102.61L102.89 331.45H97.1799V327.12H108.53C108.53 328.5 108.46 330.42 108.32 331.39L107.77 334.97H107.91C109.42 329.6 115.13 326.3 120.5 326.3C130.27 326.3 132.68 332.9 132.68 339.65C132.68 345.7 132.41 352.79 132.41 358.3H137.64V362.63H122.23V358.28H122.22Z" fill="#777777"/>
<path d="M147.88 331.45H141.41V327.12H153.52L153.24 358.29H158.88V362.62H141.96V358.29H147.6L147.88 331.45ZM150.02 309.16C152.36 309.16 154.29 311.09 154.29 313.43C154.29 315.77 152.36 317.7 150.02 317.7C147.68 317.7 145.75 315.77 145.75 313.43C145.75 311.08 147.68 309.16 150.02 309.16Z" fill="#777777"/>
<path d="M159.08 327.12H173.67V331.45H169.4L177.59 354.22C177.93 355.18 178.14 356.22 178.35 357.25H178.49C178.7 356.22 178.9 355.19 179.25 354.22L187.64 331.45H183.03V327.12H197.2V331.45H193.28L181.03 362.62H175.39L163.07 331.45H159.08V327.12Z" fill="#777777"/>
<path d="M205.2 345.35C205.41 352.64 208.57 358.77 218.68 358.77C222.53 358.77 226.38 357.6 229.34 356.09L229.13 360.97C226.52 362.28 221.01 363.45 217.43 363.45C206.22 363.45 199.27 357.33 199.27 344.94C199.27 334.48 204.91 326.3 215.71 326.3C229.75 326.3 231.05 339.03 231.05 345.36H205.2V345.35ZM225.15 341.01C225.15 335.44 221.64 330.62 215.72 330.62C209.67 330.62 205.54 335.16 205.2 341.01H225.15Z" fill="#777777"/>
<path d="M241.94 331.45H235.89V327.12H247.59V329.05C247.59 331.11 247.18 335.31 246.83 338.2H246.9H247.04C248.42 332.97 250.27 326.5 259.08 326.5C259.56 326.5 262.38 326.78 262.66 327.05L262.11 332.14C261.15 331.8 259.63 331.59 258.26 331.59C250.97 331.59 247.73 338.75 247.6 345.01L247.32 358.29H253.31V362.62H236.66V358.29H241.68L241.94 331.45Z" fill="#777777"/>
<path d="M291.04 336.95H285.95L285.67 331.93C284.36 330.83 281.06 330.62 279.41 330.62C275.83 330.62 271.22 331.79 271.22 336.06C271.22 339.91 274.66 341.08 279.89 341.98C288.9 343.49 292.69 346.25 292.69 352.09C292.69 358.42 288.42 363.44 278.17 363.44C274.32 363.44 268.2 362.48 265.99 361.31L265.72 352.23H270.81L271.08 357.53C273.21 358.56 276.79 359.11 279.13 359.11C282.85 359.11 287.32 357.53 287.32 353.19C287.32 349.68 283.67 348.44 279.82 347.62C270.33 345.56 265.58 343.9 265.58 336.96C265.58 331.25 269.37 326.3 279.55 326.3C282.51 326.3 288.01 327.26 290.76 328.43L291.04 336.95Z" fill="#777777"/>
<path d="M304.08 331.45H297.61V327.12H309.72L309.44 358.29H315.08V362.62H298.16V358.29H303.8L304.08 331.45ZM306.22 309.16C308.56 309.16 310.49 311.09 310.49 313.43C310.49 315.77 308.56 317.7 306.22 317.7C303.88 317.7 301.95 315.77 301.95 313.43C301.95 311.08 303.88 309.16 306.22 309.16Z" fill="#777777"/>
<path d="M317.63 327.12H323.34L323.61 318.45L329.25 318.11L328.98 327.12H340.13V331.45H328.91C328.77 337.37 328.64 343.35 328.64 349.27C328.64 354.36 328.64 358.77 334.08 358.77C336.97 358.77 339.58 357.94 341.1 357.33L340.89 361.8C339.1 362.69 335.8 363.45 332.91 363.45C323 363.45 323 356.36 323 351.82C323 347.48 323.21 336.61 323.28 331.45H317.64V327.12H317.63Z" fill="#777777"/>
<path d="M342.99 327.12H357.99V331.45H353.52L361.98 353.53C362.39 354.77 362.81 356.42 362.94 357.25H363.08C363.22 356.42 363.63 354.77 364.04 353.53L371.95 331.45H366.93V327.12H381.1V331.45H377.18L366.31 361.38C361.29 375.35 357.23 380.71 348.28 380.71C346.56 380.71 345.12 380.44 344.08 380.09V375.41C344.91 375.69 346.69 376.03 348.07 376.03C352.13 376.03 356.33 373.55 359.01 367.09L360.18 364.2L347.18 331.45H342.98V327.12H342.99Z" fill="#777777"/>
<path d="M48.1599 290.41H53.8199V296.97C56.0299 298.28 60.2399 298.76 63.2799 298.76C70.1799 298.76 74.7399 295.58 74.7399 289.78C74.7399 276.87 48.2199 284.53 48.2199 267.2C48.2199 261.33 51.6699 253.46 66.0999 253.46C69.6199 253.46 76.0399 254.36 79.0799 255.74V265.48H73.6999V259.47C71.8999 258.71 67.8999 258.16 65.6199 258.16C60.4399 258.16 54.5699 260.16 54.5699 266.52C54.5699 278.81 81.0899 271.15 81.0899 288.96C81.0899 299.59 71.9699 303.46 62.6499 303.46C54.7099 303.46 50.8399 301.6 48.1499 301.04V290.41H48.1599Z" fill="#777777"/>
<path d="M85.46 267H91.19L91.47 258.3L97.13 257.96L96.85 267H108.04V271.35H96.78C96.64 277.29 96.5 283.3 96.5 289.23C96.5 294.34 96.5 298.76 101.95 298.76C104.85 298.76 107.47 297.93 108.99 297.31L108.78 301.8C106.99 302.7 103.67 303.46 100.77 303.46C90.83 303.46 90.83 296.35 90.83 291.79C90.83 287.44 91.04 276.53 91.11 271.35H85.45V267H85.46Z" fill="#777777"/>
<path d="M129.29 266.17C140.13 266.17 146.55 273.63 146.55 283.85C146.55 295.18 140.13 303.46 129.29 303.46C118.45 303.46 112.03 296 112.03 285.79C112.03 274.46 118.45 266.17 129.29 266.17ZM129.29 298.76C136.89 298.76 140.62 292.55 140.62 284.81C140.62 277.08 136.89 270.86 129.29 270.86C121.7 270.86 117.97 277.07 117.97 284.81C117.97 292.55 121.7 298.76 129.29 298.76Z" fill="#777777"/>
<path d="M181 301.73C178.24 302.56 174.65 303.46 170.71 303.46C156.62 303.46 152.13 294.14 152.13 284.82C152.13 271.22 162 266.18 169.95 266.18C173.89 266.18 177.82 266.66 181.48 267.97V277.29H176.37V271.7C174.85 271.15 172.02 270.87 170.43 270.87C160.14 270.87 158.07 279.02 158.07 284.82C158.07 286.75 158.35 298.77 171.6 298.77C175.12 298.77 177.95 297.8 181.27 296.77L181 301.73Z" fill="#777777"/>
<path d="M191.37 253.88H184.46V249.53H197.03L196.89 282.67L210.49 271.48V271.34H205.52V267H221V271.35H217.34L202.56 283.37L218.65 298.29H222.52V302.64H207.05V298.29H211.33V298.15L196.9 284.4L196.76 298.28H201.46V302.63H185.99V298.28H191.1L191.37 253.88Z" fill="#777777"/>
<path d="M231.63 253.88H224.72V249.53H237.29L237.22 268.24C237.22 269.83 236.81 273.35 236.53 274.87H236.67C238.19 269.48 243.92 266.17 249.31 266.17C259.12 266.17 261.53 272.8 261.53 279.56C261.53 285.64 261.25 292.75 261.25 298.27H266.5V302.62H251.03V298.27H255.59C255.59 292.74 255.86 286.94 255.86 281.21C255.86 277.76 255.72 270.85 247.78 270.85C242.74 270.85 237.21 273.89 237.21 283.55L237 298.26H242.25V302.61H226.23V298.26H231.34L231.63 253.88Z" fill="#777777"/>
<path d="M287.53 266.17C298.37 266.17 304.79 273.63 304.79 283.85C304.79 295.18 298.37 303.46 287.53 303.46C276.69 303.46 270.27 296 270.27 285.79C270.27 274.46 276.69 266.17 287.53 266.17ZM287.53 298.76C295.13 298.76 298.85 292.55 298.85 284.81C298.85 277.08 295.12 270.86 287.53 270.86C279.93 270.86 276.21 277.07 276.21 284.81C276.2 292.55 279.93 298.76 287.53 298.76Z" fill="#777777"/>
<path d="M313.99 253.88H307.08V249.53H319.65L319.37 298.28H325.03V302.63H308.6V298.28H313.71L313.99 253.88Z" fill="#777777"/>
<path d="M330.07 298.28H334.63L334.9 271.35H329.17V267H340.56C340.56 268.38 340.49 270.32 340.35 271.28L339.8 274.87H339.94C341.46 269.48 347.19 266.17 352.58 266.17C359.07 266.17 362.45 269.9 363.35 274.52H363.49C364.18 273 366.39 266.17 375.57 266.17C385.37 266.17 387.79 272.8 387.79 279.56C387.79 285.64 387.51 292.75 387.51 298.27H392.76V302.62H377.3V298.27H381.86C381.93 292.47 382.13 286.74 382.13 281.01C382.13 275.83 381.02 270.86 374.4 270.86C369.77 270.86 364.25 273.9 364.18 283.56L364.04 298.27H369.15V302.62H353.61V298.27H358.16C358.23 292.47 358.44 286.74 358.44 281.01C358.44 275.83 357.34 270.86 350.71 270.86C346.08 270.86 340.56 273.9 340.49 283.56L340.35 298.27H345.53V302.62H330.06V298.28H330.07Z" fill="#777777"/>
</svg>
